<?xml version="1.0" standalone="no"?>
<!DOCTYPE svg PUBLIC "-//W3C//DTD SVG 20010904//EN"
 "http://www.w3.org/TR/2001/REC-SVG-20010904/DTD/svg10.dtd">
<svg version="1.0" xmlns="http://www.w3.org/2000/svg"
 width="4575.000000pt" height="5382.000000pt" viewBox="0 0 4575.000000 5382.000000"
 preserveAspectRatio="xMidYMid meet">

<g transform="translate(0.000000,5382.000000) scale(0.100000,-0.100000)"
fill="#000000" stroke="none">
<path d="M35786 52454 c-15 -9 -135 -42 -265 -74 -3308 -816 -6916 -3100
-9328 -5903 -249 -290 -637 -783 -799 -1014 -16 -24 -32 -43 -36 -43 -4 0 -59
31 -122 69 -555 335 -1372 710 -2161 991 -66 24 -127 50 -137 59 -20 20 -217
357 -368 632 -62 112 -201 379 -308 594 -330 661 -541 1018 -825 1397 -519
690 -1152 1176 -1660 1273 -150 29 -162 16 -57 -59 146 -102 305 -273 415
-445 73 -113 168 -321 219 -478 45 -137 101 -352 94 -358 -2 -2 -36 35 -76 81
-313 359 -793 634 -1322 758 -241 57 -372 70 -685 70 -250 0 -310 -3 -435 -23
-405 -62 -729 -170 -1185 -396 -562 -279 -1028 -618 -1505 -1095 -330 -329
-732 -820 -673 -820 3 0 69 25 145 55 168 68 393 126 588 153 157 22 318 37
310 29 -3 -3 -44 -21 -93 -41 -100 -41 -354 -167 -472 -234 -44 -25 -150 -91
-235 -148 -742 -492 -1250 -1175 -1569 -2109 -32 -93 -71 -213 -86 -266 l-27
-96 -97 -47 -96 -48 -345 344 c-727 725 -1466 1325 -2385 1937 -1960 1305
-4001 2123 -6025 2415 -620 89 -1362 131 -1935 107 -266 -11 -556 -30 -564
-37 -2 -2 22 -59 54 -126 269 -567 419 -1105 466 -1666 16 -191 7 -559 -20
-779 -61 -516 -139 -906 -381 -1911 -204 -852 -278 -1203 -385 -1837 -163
-968 -258 -1933 -259 -2635 0 -321 9 -485 45 -760 164 -1274 711 -2529 1618
-3710 859 -1120 2045 -2107 3267 -2718 l182 -91 6 -103 c60 -934 241 -1765
547 -2512 39 -94 73 -180 76 -191 3 -16 -13 -35 -74 -86 -226 -189 -425 -307
-641 -383 -133 -46 -236 -65 -399 -73 -110 -5 -133 -9 -133 -21 0 -28 101
-199 180 -304 92 -122 292 -319 409 -402 117 -84 284 -177 407 -227 95 -39
103 -45 87 -57 -10 -8 -84 -47 -165 -87 -170 -84 -339 -143 -523 -182 -121
-25 -146 -27 -370 -27 -224 0 -249 2 -368 27 -165 35 -342 95 -486 163 -63 30
-117 52 -120 49 -10 -11 51 -176 108 -292 238 -482 665 -866 1204 -1084 60
-24 104 -45 99 -47 -14 -4 -340 44 -567 84 -549 97 -937 212 -1463 431 -26 11
-10 -35 54 -151 272 -493 696 -991 1163 -1364 124 -100 432 -309 570 -387 129
-73 406 -207 527 -255 130 -51 147 -63 79 -55 -27 3 -133 15 -235 26 -443 48
-775 131 -1049 260 -57 27 -108 49 -112 49 -18 0 -8 -24 38 -89 286 -404 776
-841 1238 -1103 439 -249 933 -410 1455 -475 151 -18 656 -26 750 -11 28 5 37
4 24 -1 -28 -12 -309 -48 -473 -61 -175 -13 -666 -13 -863 1 -228 15 -505 45
-761 80 -125 18 -231 29 -235 25 -18 -19 400 -364 733 -606 2004 -1454 5023
-2442 8195 -2680 407 -30 377 -26 384 -62 3 -17 6 -51 6 -77 0 -25 9 -88 19
-138 l18 -93 -24 -16 c-13 -8 -49 -38 -80 -66 -364 -329 -633 -980 -752 -1818
-102 -719 -115 -1415 -46 -2500 49 -768 135 -2333 135 -2455 l0 -60 -69 -42
c-106 -66 -318 -228 -442 -338 -402 -358 -718 -850 -898 -1393 -311 -943 -249
-2145 175 -3384 62 -181 301 -782 401 -1007 151 -341 313 -613 485 -812 26
-31 48 -59 48 -61 0 -3 -44 3 -97 14 -258 48 -704 102 -1088 130 -221 16
-1034 16 -1265 0 -333 -24 -969 -104 -1281 -163 -762 -142 -1327 -415 -1759
-849 -555 -558 -823 -1321 -710 -2020 53 -328 224 -693 452 -965 426 -510
1136 -845 2018 -952 110 -13 219 -17 450 -17 265 0 324 3 449 23 174 27 282
51 418 93 57 17 104 29 106 27 140 -189 259 -307 412 -407 195 -129 397 -216
620 -267 160 -37 429 -46 581 -21 192 33 358 103 485 204 l74 58 45 -33 c69
-51 254 -157 365 -209 575 -269 1180 -315 1797 -138 298 85 619 244 871 431
53 40 100 73 105 73 4 -1 36 -23 72 -50 135 -104 289 -168 515 -217 124 -26
142 -27 405 -27 537 0 1133 83 1509 210 319 108 581 307 763 579 177 265 282
579 335 1005 22 184 25 739 4 1033 -7 109 -12 199 -10 202 2 2 54 -10 116 -26
61 -15 142 -31 178 -35 61 -6 66 -9 62 -28 -78 -347 -100 -533 -100 -846 0
-463 78 -864 229 -1170 269 -548 782 -851 1508 -889 282 -14 573 8 756 59 78
22 240 94 289 129 l29 21 133 -133 c202 -201 373 -307 629 -387 300 -95 443
-115 810 -115 394 1 653 35 938 127 296 94 538 233 718 413 l92 91 53 -24
c172 -76 424 -141 650 -168 476 -57 952 87 1330 402 130 108 279 280 354 409
l25 41 87 -20 c125 -28 609 -30 787 -3 156 24 290 51 398 82 l87 25 103 -106
c500 -515 1401 -809 2712 -885 266 -15 1104 -6 1366 15 596 48 1215 141 1676
251 1048 251 1727 692 2096 1362 38 70 40 72 96 88 464 130 717 223 1092 399
1004 474 1887 1150 2541 1946 177 216 319 412 319 442 0 30 -39 64 -63 55 -8
-3 -63 -40 -122 -83 -380 -269 -850 -524 -1370 -741 -171 -72 -335 -135 -311
-120 493 311 870 610 1226 973 731 746 1268 1670 1590 2735 236 784 346 1645
312 2447 -18 424 -81 972 -114 993 -32 20 -88 1 -88 -30 0 -11 -15 -79 -34
-153 -83 -329 -241 -670 -471 -1018 -91 -138 -217 -312 -222 -307 -1 2 15 48
36 103 179 459 312 1010 370 1529 170 1518 -190 3056 -1018 4350 -85 133 -227
332 -282 395 l-31 35 36 -66 c96 -179 202 -465 265 -714 36 -144 81 -358 81
-383 0 -9 -19 17 -42 58 -253 463 -579 918 -1018 1421 -803 919 -1813 1720
-2535 2009 -535 215 -959 226 -1329 37 -176 -90 -355 -285 -475 -516 -335
-651 -289 -1576 131 -2620 196 -487 461 -981 864 -1607 133 -208 165 -255 324
-479 59 -82 110 -156 115 -164 4 -7 -17 2 -46 21 -151 97 -360 195 -550 258
-124 42 -167 48 -187 28 -31 -31 -13 -59 147 -226 191 -200 277 -299 386 -447
538 -723 865 -1626 969 -2680 40 -404 43 -790 11 -1324 -8 -130 -15 -254 -15
-275 0 -22 -2 -37 -5 -35 -2 3 -16 68 -30 145 -133 721 -435 1457 -846 2064
-55 80 -105 153 -113 163 -15 20 -69 23 -83 5 -6 -7 -15 -111 -22 -230 -39
-705 -147 -1206 -378 -1747 -383 -897 -1140 -1707 -2188 -2343 -392 -238 -872
-477 -1330 -664 -71 -29 -131 -51 -132 -50 -2 2 39 90 91 197 483 999 816
2255 887 3353 17 263 7 793 -20 1016 -62 518 -190 959 -388 1330 -345 648
-877 1100 -1633 1385 l-135 51 -12 132 c-28 311 -108 598 -298 1078 -158 397
-368 819 -613 1229 -1093 1830 -2719 3553 -4885 5175 -157 117 -145 93 -111
235 11 48 17 124 19 245 l3 175 299 86 c428 123 496 145 1214 404 504 182 732
270 1030 398 558 240 730 319 1159 533 1112 556 1979 1123 2769 1811 180 157
621 595 765 761 242 278 462 571 627 834 149 238 339 642 312 669 -6 6 -37
-24 -94 -93 -410 -502 -960 -824 -1644 -963 -117 -24 -337 -56 -343 -50 -2 2
30 15 70 30 705 267 1427 930 2018 1855 372 581 685 1250 880 1881 49 161 59
209 41 209 -11 0 -91 -143 -287 -515 l-127 -240 -226 -187 c-202 -167 -281
-230 -401 -317 -19 -14 21 33 90 105 422 439 785 1052 975 1643 106 330 164
661 181 1021 8 167 -2 320 -19 320 -7 0 -30 -41 -51 -91 -21 -50 -67 -137
-101 -194 -331 -552 -937 -937 -1810 -1150 -185 -46 -458 -99 -475 -93 -5 2
24 41 66 88 225 255 419 572 538 882 172 446 224 766 174 1066 -6 35 -15 62
-22 62 -6 0 -41 -30 -76 -66 -240 -245 -538 -443 -794 -528 -162 -54 -267 -70
-456 -70 -222 -1 -386 27 -615 106 -149 51 -475 198 -475 214 0 3 11 50 25
104 43 168 93 408 124 590 63 367 87 609 103 1026 l12 310 180 92 c1351 684
2516 1899 3405 3549 213 396 473 986 654 1488 415 1148 647 2268 708 3420 15
276 6 921 -15 1175 -56 648 -166 1212 -342 1752 -103 317 -157 442 -387 908
-600 1216 -877 1899 -1132 2790 -221 772 -327 1389 -342 1978 -4 165 -10 242
-17 242 -6 -1 -24 -8 -40 -16z m23 -86 c-5 -35 -13 -163 -20 -285 -23 -429 21
-966 126 -1528 205 -1099 482 -1918 1150 -3395 219 -484 339 -876 439 -1425
104 -581 131 -905 131 -1595 0 -523 -5 -635 -46 -1040 -190 -1899 -897 -3885
-1944 -5465 -689 -1040 -1468 -1827 -2405 -2430 l-135 -86 -7 138 c-18 373
-75 768 -156 1098 l-37 150 -6 -465 c-10 -679 -38 -1129 -110 -1740 -102 -871
-308 -1867 -555 -2679 -35 -118 -40 -141 -26 -141 22 0 227 401 327 640 80
192 178 465 237 664 27 94 52 173 53 174 2 2 41 -29 87 -68 215 -187 484 -327
741 -388 99 -23 133 -26 292 -26 160 0 192 3 292 26 208 49 415 149 575 276
103 83 253 243 318 339 30 45 55 81 56 80 5 -4 -137 -481 -202 -682 -209 -648
-545 -1133 -1039 -1500 -191 -143 -436 -285 -558 -325 -41 -13 -65 -26 -61
-32 4 -7 2 -8 -4 -4 -7 4 -128 -31 -269 -78 -630 -207 -934 -275 -1683 -375
-497 -67 -773 -109 -985 -152 -203 -40 -464 -104 -477 -117 -13 -14 83 -140
174 -228 114 -110 211 -175 393 -264 428 -209 1038 -356 1955 -469 383 -48
457 -53 745 -56 149 -1 333 -8 410 -15 157 -14 371 -8 555 16 733 93 1432 411
1925 875 l89 84 -38 -70 c-181 -330 -494 -832 -695 -1115 -157 -220 -161 -225
-263 -276 -235 -118 -714 -293 -968 -353 -193 -46 -442 -93 -960 -181 -621
-106 -723 -126 -1112 -221 -186 -45 -453 -101 -615 -130 -563 -98 -774 -147
-922 -215 -45 -20 -81 -40 -81 -43 0 -16 111 -113 175 -154 89 -57 157 -90
325 -162 305 -130 414 -196 812 -492 422 -314 599 -414 1023 -577 159 -61 432
-125 690 -161 66 -9 121 -18 122 -19 5 -4 -334 -242 -572 -402 -211 -141 -798
-489 -1094 -647 l-93 -50 -82 23 c-182 51 -539 204 -736 315 -143 80 -504 268
-550 286 -25 10 -101 42 -171 72 -164 72 -307 120 -507 168 -698 170 -1524
194 -2038 60 -212 -56 -380 -136 -490 -236 l-59 -53 60 -27 c99 -45 218 -83
460 -146 127 -33 277 -78 335 -100 176 -66 326 -166 485 -324 142 -140 222
-240 513 -634 83 -114 196 -243 301 -345 56 -54 101 -99 99 -101 -17 -15
-1152 -393 -1588 -528 -3127 -972 -6066 -1491 -8983 -1588 -395 -13 -1523 -7
-1817 10 -934 54 -1485 102 -2240 197 -1413 177 -2803 471 -4098 866 l-234 71
5 31 c2 17 16 108 30 201 35 226 69 599 68 749 0 200 -39 297 -136 346 -42 21
-62 24 -135 23 -94 -2 -186 -22 -595 -127 -274 -71 -708 -161 -935 -195 -119
-17 -427 -56 -639 -79 l-73 -9 -257 128 c-420 209 -749 393 -1100 616 -143 91
-410 271 -434 293 -4 4 59 -8 140 -27 1012 -232 1970 -190 2664 118 52 22 146
60 209 84 145 54 241 95 305 128 60 31 49 34 -28 8 -90 -31 -400 -108 -547
-135 -645 -120 -1224 -98 -1805 69 -82 24 -190 59 -240 79 l-90 35 60 0 c245
3 735 83 990 161 236 73 521 173 670 235 218 90 592 276 753 374 263 159 486
350 585 498 44 67 97 185 97 218 0 13 -30 15 -197 15 -349 0 -999 -26 -1868
-75 -242 -14 -503 -27 -580 -30 -77 -3 -264 -12 -415 -20 -151 -8 -394 -19
-540 -25 -146 -6 -270 -13 -276 -15 -15 -5 -254 126 -419 229 -252 158 -525
365 -765 581 -153 139 -493 483 -617 625 -114 131 -262 314 -258 318 2 2 43
-23 92 -56 379 -255 846 -417 1388 -484 168 -20 665 -17 830 5 103 14 145 15
200 7 115 -16 375 -25 375 -12 0 14 -4 15 -195 52 -88 17 -212 45 -275 60
-153 39 -444 138 -407 140 4 0 68 -11 142 -25 506 -93 1004 -31 1395 173 259
136 415 261 916 738 l170 161 -215 6 c-285 7 -503 42 -961 155 l-195 48 55 8
c30 3 92 11 138 17 136 18 116 31 -73 44 -340 25 -629 101 -922 244 -279 137
-466 273 -714 520 -96 97 -186 191 -199 210 l-24 34 25 -7 c286 -84 604 -7
904 217 78 58 214 191 265 260 35 47 50 57 50 35 0 -14 213 -445 234 -473 30
-41 27 -2 -12 157 -213 861 -349 1807 -393 2733 -15 319 -6 1187 15 1475 81
1083 261 2016 577 2985 212 653 409 1128 821 1980 83 171 175 362 204 425 l54
115 -37 -45 c-21 -25 -51 -58 -66 -75 l-29 -30 6 40 c90 622 111 897 111 1505
0 492 -5 605 -46 1000 -143 1395 -563 2574 -1324 3720 -313 472 -622 848
-1034 1261 -422 422 -788 722 -1261 1034 -889 586 -1774 985 -2735 1232 l-210
53 260 -5 c1024 -20 2174 -203 3282 -521 2166 -622 4379 -1795 6598 -3499 382
-293 925 -731 925 -745 0 -3 -46 -32 -102 -65 -331 -192 -760 -517 -1193 -905
-202 -180 -808 -787 -800 -800 4 -6 25 6 48 26 725 633 1407 1123 1920 1380
102 52 282 134 292 134 2 0 2 -6 0 -12 -15 -40 -79 -465 -106 -699 -28 -239
-32 -317 -36 -609 -5 -367 9 -574 62 -888 118 -695 400 -1276 830 -1706 127
-126 226 -207 365 -298 147 -96 396 -215 414 -197 3 3 17 68 31 145 146 795
500 1541 1014 2137 206 238 463 487 706 683 115 93 370 284 379 284 4 0 -14
-40 -38 -88 -327 -651 -446 -1406 -331 -2089 29 -169 42 -225 97 -400 26 -83
46 -133 55 -133 7 0 13 4 13 9 0 26 265 480 393 670 508 762 1103 1355 1795
1790 714 449 1559 735 2467 836 292 32 413 38 860 44 298 4 459 10 458 16 -5
21 -458 70 -792 86 -800 37 -1657 -105 -2391 -395 -206 -82 -578 -268 -763
-383 -487 -302 -956 -718 -1298 -1153 -320 -405 -549 -833 -701 -1305 l-28
-90 5 285 c23 1297 322 2248 961 3048 131 165 315 361 470 504 184 168 190
185 37 94 -217 -128 -378 -252 -577 -446 -210 -204 -389 -420 -539 -650 l-56
-86 -103 -43 c-406 -170 -851 -473 -1183 -806 -670 -669 -1033 -1543 -975
-2346 6 -88 14 -167 17 -175 9 -25 -11 -15 -114 53 -344 230 -624 552 -827
953 -344 678 -446 1527 -305 2545 38 274 59 397 130 750 84 422 212 799 399
1173 205 411 436 730 761 1047 321 314 639 537 1064 745 416 204 827 341 1330
444 510 104 922 140 1618 140 251 0 457 4 457 8 0 9 -17 14 -140 37 -559 105
-1238 129 -1840 66 -284 -30 -636 -93 -865 -154 -41 -11 -142 -24 -245 -31
-457 -30 -860 -118 -1174 -256 -55 -24 -101 -42 -103 -41 -4 5 617 511 837
683 994 776 1788 1179 2555 1295 167 26 532 36 700 20 629 -60 1191 -303 1612
-696 66 -61 84 -73 89 -60 14 35 -4 368 -25 455 -79 341 -265 633 -526 827
-59 44 -8 22 98 -42 326 -195 672 -533 1023 -998 300 -398 536 -799 903 -1536
223 -448 408 -772 589 -1031 224 -319 372 -509 576 -737 159 -177 417 -432
423 -416 2 7 -19 47 -48 90 -99 146 -368 567 -365 570 4 4 1097 -435 1351
-542 608 -256 1152 -518 1464 -706 114 -69 131 -77 131 -61 0 20 -638 475
-694 495 -13 5 27 48 424 456 1114 1147 2370 2253 3625 3191 982 734 1704
1204 2830 1842 327 185 1193 620 1517 762 155 68 418 183 582 256 164 72 414
174 555 225 141 51 342 125 446 164 105 39 195 71 200 70 6 0 -17 -14 -50 -31
-623 -317 -1311 -764 -1862 -1209 -406 -328 -929 -831 -1248 -1197 -833 -958
-1400 -1938 -1837 -3172 -534 -1505 -691 -3109 -457 -4660 49 -327 181 -924
202 -917 13 4 13 12 -3 202 -5 66 -12 192 -16 281 l-7 161 87 234 c302 816
437 1072 721 1368 l100 104 -65 -33 c-95 -48 -193 -117 -297 -209 -229 -202
-405 -491 -520 -851 l-34 -105 5 375 c13 1011 157 2057 427 3098 130 504 285
958 496 1457 111 263 363 770 504 1015 62 107 118 206 126 220 8 14 23 39 33
55 11 17 23 37 27 45 7 16 16 30 81 127 23 33 42 64 42 67 0 9 247 374 314
463 33 45 68 91 76 103 8 12 22 30 30 40 8 10 22 28 30 40 8 12 23 31 33 42 9
12 17 24 17 27 0 3 16 23 35 45 19 21 35 41 35 45 0 3 12 20 28 36 15 17 39
46 53 65 15 19 35 45 45 57 11 12 33 38 49 59 17 21 37 45 46 54 8 9 22 25 30
37 8 11 39 48 69 83 30 34 71 81 90 103 19 22 46 52 60 67 14 15 61 67 105
116 102 114 624 637 733 734 46 41 98 89 116 105 18 17 56 50 85 75 29 25 63
54 75 66 78 77 464 388 701 566 280 210 890 626 921 627 7 1 8 -19 3 -61z
m-33899 -2783 c1034 -371 1972 -883 2826 -1541 78 -60 161 -126 185 -146 227
-190 277 -233 413 -357 86 -78 499 -493 576 -577 107 -118 182 -204 203 -232
12 -15 30 -36 40 -47 11 -11 31 -36 46 -55 14 -19 33 -42 41 -51 86 -93 463
-613 525 -724 7 -11 44 -70 83 -132 624 -985 1067 -2253 1271 -3643 94 -644
151 -1423 151 -2088 l0 -224 -68 -86 c-351 -448 -711 -1057 -1046 -1769 -448
-954 -765 -2163 -861 -3283 -21 -255 -37 -658 -33 -868 2 -100 2 -182 1 -182
-14 0 -721 601 -1008 856 -692 616 -1398 1328 -1823 1836 -1048 1257 -1672
2595 -1822 3910 -54 475 -44 1097 36 2033 79 943 190 1669 479 3143 187 957
242 1373 252 1897 7 381 -4 542 -59 849 -67 381 -178 721 -349 1076 -65 134
-203 394 -237 448 -8 12 -12 22 -8 22 3 0 87 -29 186 -65z m32590 -18364 c0
-4 -18 -20 -39 -34 -40 -27 -200 -117 -207 -117 -2 0 36 36 84 79 75 69 92 80
125 80 20 1 37 -3 37 -8z m-7013 -8768 c-10 -215 -61 -388 -187 -638 -171
-341 -426 -685 -765 -1034 -770 -792 -1786 -1378 -3035 -1749 -459 -137 -901
-236 -1320 -296 -199 -28 -494 -60 -511 -54 -17 6 125 153 196 204 168 119
437 216 995 359 844 217 1263 350 1622 516 575 267 1102 699 1665 1364 441
521 601 772 707 1105 63 198 50 182 179 214 62 15 189 49 282 76 94 26 172 49
174 49 2 1 1 -52 -2 -116z m241 -610 c1171 -937 2398 -2128 3284 -3188 743
-889 1328 -1765 1743 -2610 184 -376 261 -565 437 -1085 66 -195 135 -393 154
-439 41 -102 42 -115 12 -105 -380 121 -991 248 -1383 286 -191 18 -665 15
-853 -6 -1132 -125 -2004 -628 -2538 -1463 -84 -131 -224 -401 -224 -432 0
-27 47 -58 67 -45 9 5 41 59 73 120 364 698 983 1219 1750 1474 355 118 695
175 1115 187 715 19 1513 -136 2321 -452 708 -277 1247 -791 1537 -1465 297
-690 369 -1553 216 -2613 -45 -315 -83 -501 -111 -540 l-23 -32 -10 100 -10
100 -55 3 c-94 6 -314 -17 -417 -43 -77 -19 -152 -51 -348 -149 -499 -248
-677 -313 -1120 -411 -390 -86 -466 -108 -730 -214 -364 -147 -420 -160 -784
-186 -261 -19 -412 -38 -511 -66 -182 -50 -239 -83 -226 -134 15 -59 252 -197
516 -300 392 -153 630 -249 630 -256 0 -15 -375 -21 -567 -10 -741 43 -1373
237 -1923 589 -130 84 -301 214 -298 228 4 17 238 210 433 357 206 156 373
265 560 367 341 187 425 236 530 305 61 40 142 102 181 138 140 130 123 188
-66 231 -177 41 -419 38 -770 -9 -102 -13 -225 -30 -275 -36 -56 -8 -251 -13
-515 -14 -459 -2 -562 -10 -862 -70 -70 -14 -132 -25 -137 -25 -5 0 -29 48
-53 108 l-43 107 0 217 c0 161 -3 220 -13 230 -35 35 -50 -46 -86 -462 -68
-783 -68 -1696 0 -2440 66 -731 205 -1338 400 -1749 30 -63 54 -116 54 -118 0
-3 -15 5 -32 16 -173 112 -436 234 -663 307 -82 26 -151 48 -152 49 -1 1 11
80 27 176 65 389 85 748 77 1394 -4 253 -11 552 -17 665 -107 2140 -355 4457
-769 7175 -39 253 -78 510 -87 570 -18 118 -33 150 -59 125 -12 -13 -9 -58 30
-370 87 -707 230 -1985 319 -2860 25 -245 52 -506 60 -580 l14 -135 -60 -55
c-184 -168 -453 -312 -823 -440 -66 -23 -284 -91 -484 -151 -389 -118 -556
-175 -715 -245 -81 -36 -246 -123 -265 -140 -8 -7 53 -65 114 -109 176 -125
496 -238 910 -319 72 -14 308 -55 525 -91 217 -36 465 -81 551 -100 170 -38
378 -100 395 -118 21 -22 100 -1291 130 -2080 l7 -179 -39 20 c-96 48 -163 57
-434 57 -221 0 -287 -4 -495 -30 l-240 -30 -705 0 c-781 0 -750 2 -888 -67
-89 -45 -131 -89 -191 -207 -29 -56 -72 -124 -97 -152 -54 -61 -56 -87 -10
-127 43 -37 114 -61 336 -111 96 -22 255 -63 353 -90 217 -61 315 -83 527
-116 201 -31 294 -53 429 -100 126 -44 495 -204 725 -315 299 -144 483 -212
608 -225 59 -6 72 -5 104 14 l37 22 -6 -322 c-4 -177 -9 -324 -11 -327 -3 -2
-45 3 -93 11 -181 33 -576 62 -1049 77 -1347 44 -2380 -186 -3214 -716 -194
-123 -199 -134 -11 -22 216 129 518 266 775 352 827 277 1776 340 3109 205
297 -30 438 -57 647 -124 245 -80 470 -189 695 -340 183 -122 281 -202 443
-360 695 -677 1003 -1591 771 -2289 -60 -182 -178 -370 -349 -558 -225 -247
-545 -411 -925 -474 -163 -28 -495 -26 -665 4 -129 22 -306 64 -318 76 -3 4 0
17 8 29 99 154 147 254 206 429 30 90 71 253 79 323 3 17 7 53 11 80 12 85 13
105 13 273 2 367 -85 820 -234 1225 -55 150 -71 173 -108 163 -40 -10 -41 -37
-8 -144 70 -230 124 -474 157 -712 23 -160 26 -610 6 -745 -83 -551 -311 -925
-709 -1161 -276 -163 -727 -269 -1199 -281 -400 -10 -688 42 -970 177 -259
124 -500 344 -654 595 -256 417 -361 1013 -299 1698 12 133 7 150 -45 145 -28
-3 -32 -7 -42 -56 -36 -160 -49 -329 -49 -617 0 -315 15 -472 61 -680 48 -215
147 -458 262 -643 29 -46 52 -87 52 -90 0 -4 -75 -7 -168 -8 -92 0 -259 -9
-372 -19 -420 -36 -760 -4 -1052 101 -517 186 -835 681 -920 1434 -19 171 -16
614 5 770 76 552 258 1041 558 1505 62 96 75 137 142 450 13 61 29 109 34 108
52 -11 253 -36 256 -33 3 3 10 68 16 145 32 376 76 718 191 1485 80 531 130
879 152 1069 l13 103 330 167 c448 227 622 327 681 392 17 19 17 20 -2 35 -67
54 -541 240 -799 314 -60 17 -117 33 -125 36 -14 3 -16 36 -18 227 -5 641 -99
1160 -301 1673 -56 143 -173 386 -245 511 l-47 81 -30 344 c-37 431 -107 1129
-154 1533 -20 171 -38 338 -42 373 -7 71 -24 104 -44 85 -10 -10 -4 -91 29
-390 87 -784 149 -1509 202 -2348 26 -414 52 -936 48 -940 -10 -11 -364 273
-733 585 -491 417 -731 612 -1010 822 -914 687 -1654 1083 -2328 1247 -89 22
-198 45 -242 52 -44 7 -85 17 -92 23 -15 14 -128 338 -198 568 -95 315 -188
708 -252 1071 -13 75 -28 57 -25 -31 11 -285 82 -741 173 -1107 74 -296 232
-793 333 -1046 5 -10 -8 -25 -41 -49 -26 -19 -140 -112 -253 -206 -255 -212
-371 -299 -536 -399 -473 -289 -563 -374 -473 -449 39 -33 132 -61 289 -86
201 -32 382 -87 924 -284 176 -64 321 -118 323 -120 2 -2 28 -124 58 -272 222
-1096 585 -2116 1059 -2968 36 -66 65 -120 64 -121 -38 -29 -361 -238 -425
-275 -114 -65 -256 -120 -423 -164 -165 -43 -228 -55 -591 -111 -406 -63 -493
-82 -955 -211 -76 -21 -85 -37 -43 -81 118 -125 541 -320 1020 -472 211 -66
440 -118 734 -165 901 -145 1367 -206 1576 -206 l87 0 26 -44 c31 -54 52 -148
115 -531 218 -1315 268 -2137 170 -2782 -66 -436 -201 -748 -410 -948 -240
-230 -566 -361 -1094 -439 -354 -53 -545 -77 -682 -86 -690 -47 -1111 225
-1233 797 -31 142 -38 447 -16 643 20 168 56 373 91 512 32 125 32 146 -1 158
-46 18 -58 0 -112 -162 -63 -187 -105 -359 -134 -543 -30 -197 -30 -519 0
-685 37 -205 108 -385 206 -526 l45 -64 -42 -24 c-143 -84 -448 -217 -647
-283 -704 -232 -1470 -174 -2040 155 -463 267 -710 650 -769 1194 -46 419 52
967 280 1570 41 108 48 137 40 155 -12 26 -52 31 -74 9 -8 -8 -41 -70 -75
-138 -171 -348 -299 -749 -353 -1108 -19 -129 -23 -196 -23 -400 0 -229 1
-253 26 -371 67 -311 195 -574 388 -798 40 -45 70 -84 68 -86 -34 -30 -223
-92 -333 -110 -360 -59 -859 58 -1184 278 -97 65 -229 192 -302 290 -66 88
-172 298 -218 431 -76 216 -110 406 -118 646 -27 839 369 1535 1137 2000 506
306 1163 499 1960 574 840 80 1637 51 2323 -85 748 -148 1396 -427 1913 -823
79 -61 88 -66 44 -26 -84 78 -311 246 -445 331 -879 555 -2065 823 -3445 779
-179 -6 -330 -13 -337 -15 -7 -2 -14 -1 -17 3 -2 4 -9 158 -15 342 -6 184 -13
363 -16 398 l-4 63 72 33 c209 96 357 126 643 133 369 9 664 -35 1199 -178
132 -35 635 -182 675 -197 8 -3 -129 142 -306 324 -425 435 -586 611 -805 879
-269 328 -533 739 -746 1160 -107 212 -244 513 -235 519 4 2 50 16 102 30 325
92 583 186 985 358 303 130 416 184 483 230 155 107 84 244 -193 374 -116 54
-215 88 -435 148 -91 25 -296 91 -455 147 -535 187 -636 213 -992 265 l-31 5
-41 167 c-105 436 -98 384 -121 889 -71 1596 -146 3036 -210 4058 -44 702 -50
853 -50 1280 l0 391 110 111 c128 130 221 208 340 286 532 346 1174 378 1899
94 301 -117 563 -260 1176 -642 600 -373 916 -534 1284 -655 622 -205 1311
-197 2176 25 674 172 1342 457 2007 856 384 231 813 537 1128 807 266 229 653
619 919 927 66 77 140 153 163 170 160 111 365 291 604 529 355 356 556 596
738 880 76 119 198 350 231 439 10 26 22 47 27 47 6 0 76 -53 156 -117z
m-6283 -415 c20 -24 68 -90 106 -147 370 -557 411 -1310 104 -1916 -50 -101
-144 -256 -165 -275 -3 -3 -17 -21 -31 -40 -49 -65 -149 -170 -235 -247 -424
-379 -1033 -558 -1594 -468 -284 46 -580 168 -800 329 -273 201 -488 449 -602
695 -140 302 -198 557 -198 874 0 324 59 583 195 862 35 72 69 138 77 147 14
18 32 19 815 48 393 14 1119 63 1428 95 270 29 661 66 750 72 50 3 92 7 94 9
10 9 22 1 56 -38z m17610 -1682 c452 -94 983 -383 1579 -860 416 -333 719
-617 1124 -1056 621 -671 1088 -1346 1388 -2004 45 -98 89 -183 99 -188 26
-15 64 -1 71 26 6 26 -24 186 -92 486 -82 358 -179 664 -280 879 -24 52 -43
95 -41 97 1 2 42 -65 89 -149 414 -729 706 -1509 862 -2306 197 -1001 176
-1978 -64 -2929 -79 -318 -194 -655 -326 -962 -46 -108 -84 -202 -84 -210 0
-20 30 -50 51 -50 38 0 318 349 508 632 193 290 333 553 443 833 l39 100 -5
-313 c-23 -1250 -255 -2354 -712 -3389 -90 -203 -319 -652 -388 -760 -1 0 -53
-6 -116 -13 -107 -10 -268 -34 -650 -94 -86 -13 -219 -30 -296 -36 -218 -18
-302 -5 -809 125 -260 67 -368 85 -515 85 -101 0 -125 -4 -197 -29 -191 -66
-288 -175 -261 -294 30 -136 163 -243 598 -483 133 -73 339 -198 475 -289 269
-180 605 -421 605 -435 0 -10 -208 -203 -354 -329 -352 -302 -886 -691 -948
-691 -66 0 -181 74 -317 205 -107 103 -147 155 -261 345 -154 254 -258 390
-429 559 -235 231 -522 427 -870 594 -81 39 -148 71 -150 73 -2 2 13 22 33 45
55 65 47 97 -41 162 -139 101 -398 229 -683 337 -168 64 -826 286 -1048 353
l-122 38 166 122 c860 630 1430 1370 1698 2206 153 476 200 1009 131 1496 -7
55 -12 101 -11 103 5 5 97 -141 176 -279 354 -619 595 -1345 674 -2029 21
-176 39 -549 31 -622 -3 -34 -2 -66 5 -77 13 -25 44 -35 68 -22 37 20 153 329
210 561 55 221 112 584 112 720 0 25 4 50 8 56 4 6 43 16 87 23 536 73 944
176 1232 311 203 96 304 187 328 299 7 31 3 37 -58 96 -140 137 -586 323
-1247 519 -102 30 -205 61 -230 70 -25 8 -70 22 -101 30 l-55 15 -18 118 c-66
444 -196 927 -352 1308 -80 195 -243 513 -349 683 -179 285 -411 571 -649 800
-70 67 -125 122 -121 122 15 0 222 -103 312 -155 119 -70 200 -126 317 -219
71 -57 124 -114 266 -291 232 -287 327 -395 348 -395 22 0 48 19 54 40 16 48
-183 319 -387 530 -72 74 -176 196 -231 270 -640 859 -957 1374 -1306 2119
-44 95 -134 317 -189 469 -185 511 -292 1076 -275 1449 24 532 176 935 460
1218 87 87 114 107 196 147 103 51 236 93 340 108 107 15 320 4 455 -24z
m-24616 -6373 c106 -336 151 -609 211 -1268 60 -673 81 -1077 81 -1625 0 -441
-9 -661 -41 -988 -57 -578 -154 -1009 -276 -1228 -36 -66 -119 -174 -134 -174
-17 0 -186 396 -311 730 -260 698 -406 1333 -450 1965 -15 211 -7 651 15 830
82 669 301 1218 671 1680 88 110 174 205 186 205 4 0 26 -57 48 -127z m8108
-2885 c-3 -8 -6 -5 -6 6 -1 11 2 17 5 13 3 -3 4 -12 1 -19z m5280 -2335 c-2
-16 -4 -5 -4 22 0 28 2 40 4 28 2 -13 2 -35 0 -50z m10 -470 c-2 -21 -4 -4 -4
37 0 41 2 58 4 38 2 -21 2 -55 0 -75z m6197 -159 c177 -9 407 -14 534 -12 150
2 221 0 219 -7 -2 -5 -44 -122 -92 -260 -48 -137 -93 -255 -99 -261 -6 -6 -69
-23 -141 -38 -71 -15 -213 -52 -315 -81 -1085 -313 -1976 -949 -2542 -1815
-140 -213 -278 -469 -278 -514 0 -29 31 -50 58 -41 10 3 47 58 83 122 388 707
1030 1313 1809 1707 693 351 1399 516 2210 516 1212 0 2205 -286 2892 -832
129 -102 320 -288 405 -393 245 -303 410 -677 453 -1029 17 -136 7 -420 -20
-551 -56 -279 -204 -584 -389 -805 -30 -36 -56 -67 -58 -69 -11 -14 -10 12 2
59 21 81 43 213 54 331 53 541 -16 965 -230 1399 -283 574 -776 1026 -1384
1268 -196 78 -287 98 -299 66 -17 -44 -9 -50 197 -152 305 -151 533 -311 761
-532 486 -471 727 -1038 726 -1708 -1 -203 -6 -266 -56 -677 -42 -346 -22
-301 -190 -414 -215 -145 -449 -259 -721 -351 -163 -54 -404 -122 -411 -115
-2 2 12 44 31 94 63 156 107 343 156 659 43 271 52 391 52 632 0 848 -299
1526 -827 1877 -48 32 -57 35 -79 25 -48 -22 -34 -53 78 -165 388 -387 577
-914 577 -1612 0 -372 -46 -706 -160 -1173 -28 -111 -55 -245 -62 -297 -9 -70
-16 -96 -28 -100 -60 -19 -802 -132 -1040 -159 -769 -87 -1576 -84 -2313 9
-516 66 -1023 176 -1467 321 -291 94 -443 165 -648 301 l-112 75 -223 -26
c-406 -48 -510 -57 -742 -63 -246 -6 -370 1 -361 20 65 148 103 274 133 437
21 117 23 422 5 555 -67 472 -280 948 -612 1365 -46 58 -156 179 -245 270
l-161 165 -96 195 c-101 204 -233 524 -223 540 16 26 122 45 245 44 169 0 194
-6 642 -142 266 -82 345 -96 538 -95 137 0 178 3 243 21 281 77 445 196 841
614 98 103 208 213 244 246 377 332 785 501 1345 557 188 18 724 18 1091 -1z
m-20549 -514 c419 -27 817 -75 1195 -146 215 -40 452 -93 462 -102 7 -7 28
-493 22 -500 -1 -2 -83 -12 -181 -22 -1146 -118 -1998 -493 -2531 -1115 -283
-330 -453 -702 -534 -1171 -30 -175 -33 -588 -5 -759 41 -247 111 -467 215
-668 30 -59 53 -109 51 -112 -3 -2 -67 -13 -144 -24 -183 -27 -436 -43 -609
-39 l-140 3 -12 47 c-6 26 -66 155 -132 287 -134 268 -205 463 -261 716 -39
179 -51 296 -51 492 0 269 39 515 121 770 70 214 142 366 271 565 65 100 75
128 44 128 -15 0 -81 -75 -163 -187 -317 -428 -478 -1001 -433 -1539 27 -329
112 -639 260 -955 47 -103 105 -215 128 -249 23 -34 42 -64 42 -65 0 -4 -28
-1 -210 21 -421 49 -869 177 -1196 342 -96 48 -100 52 -140 119 -196 322 -324
828 -324 1276 0 331 59 600 191 877 198 412 533 751 1058 1072 34 20 61 42 61
48 0 26 -37 18 -147 -30 -315 -140 -570 -317 -803 -556 -235 -241 -379 -471
-474 -758 -67 -198 -103 -506 -92 -767 15 -356 89 -657 232 -936 35 -68 61
-123 59 -123 -16 0 -219 177 -305 266 -321 333 -481 713 -497 1184 -9 248 21
451 98 684 198 594 676 1127 1289 1438 219 111 379 164 746 249 638 146 1240
224 1954 253 143 6 715 -3 885 -14z m28590 -1565 c-218 -135 -451 -238 -628
-280 -197 -46 -200 -39 -12 33 222 85 421 167 585 243 69 31 130 57 135 58 6
0 -30 -24 -80 -54z"/>
<path d="M31313 42048 c-293 -443 -479 -944 -560 -1519 -25 -177 -25 -645 0
-814 50 -334 149 -629 299 -892 39 -69 68 -93 68 -57 0 8 -20 115 -45 237 -85
422 -115 698 -115 1050 0 656 133 1287 414 1966 31 73 53 138 50 142 -14 23
-35 0 -111 -113z"/>
<path d="M36665 42138 c-2 -7 -25 -107 -50 -223 -85 -388 -174 -683 -307
-1015 -93 -231 -341 -735 -409 -831 -10 -15 -19 -30 -19 -33 0 -9 -207 -334
-277 -434 -38 -53 -79 -114 -93 -134 -43 -65 -230 -308 -329 -428 -188 -228
-310 -360 -590 -641 -312 -311 -522 -499 -849 -762 -193 -154 -232 -194 -191
-191 21 1 279 161 420 261 564 393 1094 911 1531 1494 526 701 895 1477 1062
2235 40 182 57 287 90 537 21 161 23 200 11 165z"/>
<path d="M32900 41629 c-79 -85 -182 -210 -223 -269 -261 -378 -442 -725 -573
-1095 l-43 -120 0 81 c-2 181 -43 460 -102 684 -34 130 -149 483 -156 477 -2
-2 14 -74 36 -158 93 -364 149 -725 170 -1102 5 -87 11 -161 14 -164 3 -3 11
-2 16 2 6 3 117 216 246 473 128 257 280 548 335 647 102 180 327 531 336 522
9 -9 -102 -641 -177 -1006 -251 -1225 -602 -2103 -1115 -2788 -46 -61 -84
-116 -84 -122 0 -44 86 46 250 264 475 631 820 1469 1025 2490 58 289 108 609
136 875 16 144 18 392 4 397 -6 2 -49 -38 -95 -88z"/>
<path d="M24648 40139 c-380 -30 -761 -176 -1163 -444 -174 -116 -277 -199
-403 -323 -103 -102 -218 -239 -209 -248 3 -3 22 5 44 19 220 139 642 360 852
446 596 245 1058 289 1578 151 627 -167 1299 -665 1839 -1363 32 -42 60 -74
62 -73 2 2 -24 61 -57 130 -435 916 -1261 1579 -2106 1690 -151 20 -310 26
-437 15z"/>
<path d="M11895 39124 c-420 -44 -795 -184 -1155 -432 -356 -244 -683 -597
-921 -992 -55 -93 -209 -397 -209 -415 0 -4 39 42 86 102 433 543 917 951
1396 1178 366 173 699 245 1067 232 250 -9 386 -35 685 -133 276 -91 430 -163
921 -433 121 -67 223 -121 228 -121 30 0 -242 277 -394 401 -385 317 -816 523
-1239 594 -93 15 -385 27 -465 19z"/>
<path d="M25665 36154 c-22 -2 -92 -9 -155 -15 -478 -45 -1035 -210 -1535
-454 -417 -204 -729 -427 -1051 -749 -205 -206 -311 -334 -459 -556 -739
-1110 -905 -2610 -493 -4444 74 -330 207 -769 312 -1026 19 -47 33 -87 31 -89
-6 -5 -205 118 -339 209 -70 47 -126 78 -134 75 -21 -8 17 -46 169 -169 255
-204 495 -358 790 -505 96 -48 220 -105 274 -127 54 -21 146 -70 204 -107 269
-174 664 -328 1068 -416 157 -34 468 -81 528 -80 48 1 76 -8 -265 89 -255 72
-643 200 -815 269 -55 22 -98 40 -95 40 3 1 61 -10 130 -23 249 -49 368 -59
650 -59 462 0 798 61 1170 213 80 32 233 94 340 138 483 196 941 331 1385 406
462 79 1011 79 1420 0 123 -23 331 -79 422 -113 75 -27 137 -54 273 -117 l45
-21 -75 -7 c-512 -49 -1003 -273 -1179 -537 -38 -56 -86 -167 -78 -176 3 -2
25 24 50 59 58 82 180 197 269 255 178 115 392 194 816 302 151 38 278 73 284
79 7 7 -14 26 -65 60 -288 195 -712 338 -1182 399 -109 14 -211 18 -463 18
-310 0 -321 1 -298 18 87 63 279 337 390 555 288 570 469 1263 552 2114 l6 67
67 6 c275 26 487 160 620 390 27 46 63 135 56 135 -3 0 -32 -13 -65 -30 -32
-16 -94 -42 -137 -57 -70 -24 -92 -27 -213 -27 -111 0 -150 4 -217 23 l-83 23
0 103 c0 115 -5 107 80 120 69 11 198 54 270 90 141 71 240 167 305 296 47 93
65 167 71 299 l5 115 -28 -35 c-99 -121 -132 -157 -196 -210 -131 -108 -294
-178 -451 -195 l-66 -7 0 64 c0 36 -3 92 -6 125 l-7 60 61 33 c145 77 269 219
313 358 39 127 36 293 -8 455 -17 59 -33 75 -33 33 0 -44 -51 -199 -88 -270
-47 -91 -129 -174 -211 -214 -35 -18 -66 -30 -68 -29 -2 2 -12 60 -24 128
-151 932 -518 1676 -1038 2110 -337 281 -735 450 -1216 514 -113 15 -502 28
-590 19z m683 -889 c770 -111 1364 -601 1722 -1419 76 -174 169 -447 215 -636
19 -80 39 -158 44 -175 6 -16 12 -48 16 -69 3 -21 7 -48 10 -60 30 -134 68
-449 82 -686 20 -325 -4 -905 -48 -1180 -6 -36 -13 -81 -15 -100 -2 -19 -11
-73 -20 -120 -9 -47 -18 -98 -21 -115 -6 -40 -75 -329 -103 -430 -22 -82 -93
-304 -109 -340 -4 -11 -27 -69 -51 -130 -64 -166 -192 -422 -269 -537 -79
-118 -177 -233 -238 -282 -38 -30 -52 -34 -125 -41 -236 -20 -591 -92 -898
-180 -283 -82 -518 -166 -831 -298 -200 -84 -357 -138 -512 -176 -618 -152
-1311 -111 -1999 119 -84 29 -169 58 -188 67 -41 18 -77 32 -107 44 -100 39
-494 228 -515 248 -22 21 -159 785 -202 1131 -36 290 -79 866 -64 850 3 -3 24
-48 47 -100 344 -773 1046 -1406 1821 -1641 94 -28 76 -24 210 -53 164 -35
162 -35 345 -54 76 -8 390 -7 446 1 19 3 61 8 94 12 538 60 1090 323 1501 717
419 402 682 858 853 1478 74 269 111 747 81 1050 -5 58 -12 132 -16 165 -3 33
-9 80 -15 105 -5 25 -11 60 -14 77 -3 18 -19 90 -35 160 -17 71 -32 135 -34
144 -9 35 -81 240 -116 329 -301 758 -902 1382 -1623 1684 -293 123 -634 199
-942 209 l-70 2 118 38 c298 97 684 176 1007 207 127 12 440 4 568 -15z m-193
-1305 c176 -44 339 -151 446 -293 90 -119 132 -217 159 -366 12 -66 5 -225
-11 -268 -5 -13 -7 -23 -4 -23 9 0 -26 -100 -60 -169 -137 -281 -430 -458
-740 -447 -124 4 -204 25 -320 81 -271 131 -446 405 -447 700 0 92 21 233 42
274 4 9 26 55 49 102 78 165 257 322 436 384 145 50 312 59 450 25z m-2074
-3126 c280 -83 458 -385 394 -666 -27 -121 -68 -193 -159 -283 -93 -93 -169
-135 -289 -159 -94 -20 -132 -20 -222 -1 -267 56 -459 290 -459 560 0 162 54
287 173 405 84 84 168 132 274 155 75 17 210 12 288 -11z"/>
<path d="M10975 35514 c-377 -39 -606 -89 -863 -190 -753 -294 -1242 -895
-1471 -1809 -75 -300 -131 -749 -131 -1049 l0 -79 -37 6 c-151 25 -324 211
-389 420 -10 31 -21 57 -25 57 -12 0 -24 -126 -23 -230 4 -283 157 -498 427
-601 56 -22 57 -22 58 -63 0 -22 4 -79 8 -125 l6 -84 -120 5 c-191 8 -345 68
-512 200 -43 34 -95 80 -115 102 -44 48 -46 41 -24 -76 40 -208 159 -386 319
-476 112 -64 298 -112 432 -112 l62 0 15 -102 c11 -74 12 -105 4 -110 -31 -21
-180 -72 -251 -85 -133 -26 -319 -2 -427 53 -40 21 -37 1 10 -72 59 -90 134
-167 225 -228 130 -88 289 -131 460 -125 l81 3 43 -174 c81 -329 161 -592 253
-830 299 -776 584 -1232 959 -1535 40 -33 69 -60 65 -62 -5 -1 -65 -9 -134
-18 -481 -61 -864 -220 -1129 -469 -61 -58 -145 -171 -137 -185 3 -5 22 -12
41 -15 58 -11 347 -111 417 -144 158 -76 333 -220 436 -359 74 -102 84 -80 21
46 -76 153 -250 310 -451 406 -105 50 -174 70 -308 88 l-93 12 69 64 c233 213
570 347 994 395 563 63 1166 -3 1985 -219 533 -140 718 -168 1095 -167 369 0
792 73 1095 187 38 14 69 24 71 22 5 -5 -206 -118 -406 -218 -180 -89 -461
-217 -648 -294 -51 -21 -90 -40 -88 -42 6 -7 297 71 431 115 412 136 797 335
1064 550 73 59 167 128 209 154 463 282 762 522 1069 857 76 82 101 117 93
125 -13 13 -13 13 -136 -98 -106 -95 -295 -249 -300 -243 -2 1 6 36 16 77 86
326 154 775 192 1260 20 258 17 1115 -5 1350 -104 1100 -427 1978 -986 2678
-341 426 -794 784 -1299 1024 -428 204 -951 351 -1472 414 -128 15 -647 28
-745 18z m360 -884 c243 -11 416 -28 630 -61 128 -21 189 -38 134 -39 -87 -1
-388 -80 -559 -147 -361 -142 -682 -354 -965 -638 -492 -492 -795 -1125 -891
-1860 -24 -182 -24 -610 -1 -790 53 -394 158 -738 332 -1080 94 -186 167 -306
272 -448 393 -530 927 -901 1523 -1061 97 -26 231 -55 285 -61 17 -3 53 -7 80
-11 28 -4 64 -8 80 -10 40 -3 433 -3 465 0 138 15 182 22 321 52 105 22 314
82 364 104 11 5 70 30 130 55 672 286 1243 884 1539 1611 48 120 126 353 126
380 0 10 2 15 5 13 8 -8 34 -298 46 -518 20 -369 -2 -1256 -36 -1458 -5 -27
-21 -43 -98 -97 -194 -135 -562 -354 -682 -406 -22 -10 -76 -34 -120 -55 -269
-125 -635 -239 -939 -290 -225 -38 -374 -48 -614 -42 -292 7 -473 36 -1010
163 -744 175 -865 193 -1352 200 l-335 5 -50 38 c-79 60 -201 178 -264 255
-218 269 -442 671 -605 1086 -50 128 -146 410 -140 410 2 0 -5 21 -15 48 -18
45 -115 425 -125 487 -2 17 -11 64 -20 105 -8 41 -18 91 -21 110 -13 89 -27
177 -31 200 -10 59 -34 285 -44 410 -9 132 -7 760 4 830 3 19 10 82 16 140 18
166 54 367 91 504 6 22 12 47 14 56 2 9 20 70 40 136 322 1037 1027 1616 2039
1674 72 4 136 8 141 8 6 1 114 -3 240 -8z m2460 -980 c275 -87 483 -302 556
-575 28 -104 31 -299 6 -394 -41 -152 -98 -257 -201 -368 -107 -115 -233 -192
-383 -235 -113 -32 -315 -32 -427 0 -150 43 -266 113 -372 224 -154 161 -225
335 -225 553 0 61 2 121 5 135 3 14 8 39 12 55 49 247 249 481 494 579 113 45
182 56 330 52 104 -3 151 -9 205 -26z m-2012 -3329 c152 -53 269 -155 336
-293 42 -87 48 -109 58 -224 7 -89 -15 -197 -59 -286 -43 -87 -171 -213 -258
-255 -226 -109 -474 -68 -651 107 -119 118 -173 243 -173 405 0 264 189 502
447 561 83 19 224 12 300 -15z"/>
<path d="M17770 28603 c-226 -18 -610 -84 -770 -133 -383 -118 -601 -361 -560
-627 41 -268 328 -514 720 -619 168 -45 247 -74 312 -116 169 -110 347 -150
518 -118 83 16 182 68 310 162 63 47 133 95 155 106 94 47 224 73 435 87 287
19 440 73 555 196 91 97 130 230 105 354 -41 202 -193 360 -485 505 -307 153
-597 212 -1030 208 -121 -1 -240 -3 -265 -5z m625 -58 c393 -53 697 -168 907
-345 285 -238 268 -586 -35 -725 -99 -45 -188 -63 -400 -80 -348 -29 -401 -47
-632 -219 -164 -121 -295 -160 -450 -132 -106 18 -174 45 -269 105 -77 49
-156 78 -366 135 -112 31 -279 109 -368 173 -198 141 -292 283 -294 443 -2
239 170 398 572 531 205 67 418 108 700 133 103 9 520 -3 635 -19z"/>
<path d="M21631 27047 c121 -76 297 -195 303 -205 7 -12 -12 -145 -35 -235
-62 -246 -231 -491 -464 -672 -265 -205 -620 -351 -1023 -420 -513 -88 -921
-37 -1330 165 -256 127 -461 279 -682 507 -193 198 -342 401 -475 646 -26 48
-52 87 -58 87 -7 0 -34 -53 -61 -118 -102 -245 -274 -532 -435 -724 -356 -424
-836 -640 -1287 -577 -295 41 -547 193 -727 438 -47 63 -157 271 -157 296 0
15 150 149 237 211 33 24 94 62 135 84 76 42 64 44 -46 8 -172 -56 -284 -136
-506 -358 -158 -159 -204 -199 -315 -272 -71 -48 -188 -117 -258 -153 -71 -37
-127 -69 -125 -71 7 -6 121 24 213 56 230 81 403 204 591 422 l41 48 22 -73
c35 -114 61 -173 112 -259 155 -258 370 -422 647 -495 131 -34 380 -43 522
-19 100 18 230 54 303 85 l44 19 52 -141 c97 -265 272 -597 419 -796 197 -268
345 -413 537 -524 518 -301 1274 -254 1869 115 289 179 570 496 739 834 57
114 109 247 137 350 l22 81 132 35 c509 138 848 368 1071 728 109 178 171 364
182 548 3 56 9 102 12 102 19 0 222 -184 281 -255 164 -196 375 -298 620 -299
141 0 191 17 80 28 -147 15 -293 65 -410 141 -89 57 -130 95 -212 192 -160
192 -406 354 -694 458 -52 19 -98 35 -101 35 -4 0 31 -24 78 -53z m-2491
-2397 c254 -62 407 -208 418 -400 5 -92 12 -84 -138 -150 -268 -118 -536 -172
-865 -174 -245 -1 -366 25 -568 123 -155 75 -150 63 -68 156 214 246 503 412
798 460 118 19 310 12 423 -15z"/>
<path d="M20340 23897 c-403 -269 -734 -404 -1139 -464 -145 -21 -485 -24
-616 -4 -294 43 -571 128 -804 245 -46 24 -72 32 -77 25 -25 -41 321 -243 552
-323 217 -74 425 -108 669 -107 407 0 756 106 1143 345 145 90 427 325 419
349 -7 23 -26 14 -147 -66z"/>
<path d="M28385 19238 c-3 -13 -27 -118 -55 -235 -115 -492 -152 -708 -152
-888 -1 -254 68 -404 218 -475 72 -33 139 -43 264 -37 198 8 424 80 725 228
160 79 472 261 468 273 -11 32 -997 819 -1363 1087 -102 75 -99 73 -105 47z"/>
<path d="M31357 16573 c-3 -81 -5 -148 -4 -150 2 -2 159 115 172 129 2 2 -33
41 -79 87 l-83 82 -6 -148z"/>
</g>
</svg>
