<?xml version="1.0" standalone="no"?>
<!DOCTYPE svg PUBLIC "-//W3C//DTD SVG 20010904//EN"
 "http://www.w3.org/TR/2001/REC-SVG-20010904/DTD/svg10.dtd">
<svg version="1.0" xmlns="http://www.w3.org/2000/svg"
 width="5650.000000pt" height="4358.000000pt" viewBox="0 0 5650.000000 4358.000000"
 preserveAspectRatio="xMidYMid meet">

<g transform="translate(0.000000,4358.000000) scale(0.100000,-0.100000)"
fill="#000000" stroke="none">
<path d="M52620 42479 c-1018 -124 -1898 -326 -2944 -674 -1385 -461 -3136
-1257 -4789 -2177 -1509 -839 -3161 -1916 -4652 -3031 -77 -58 -142 -103 -144
-101 -2 2 14 25 36 51 146 177 297 455 329 603 17 79 17 100 3 100 -6 0 -62
-48 -123 -107 -123 -119 -264 -233 -446 -363 -286 -204 -517 -333 -1249 -696
l-613 -305 -42 15 c-22 8 -203 76 -401 151 -1419 538 -2597 924 -3737 1224
-451 119 -564 143 -1028 215 -844 132 -1795 211 -3065 256 -1160 41 -1629 44
-2410 19 -418 -13 -1090 -13 -1305 1 -557 35 -950 110 -1445 274 -569 189
-1056 421 -1519 722 -87 57 -165 104 -172 104 -17 0 -5 -27 55 -130 227 -388
582 -755 1014 -1048 320 -217 676 -401 1047 -542 144 -55 443 -157 480 -163
14 -3 66 -16 115 -30 50 -14 108 -28 130 -33 22 -4 42 -8 45 -9 42 -14 94 -23
129 -24 13 -1 22 -3 20 -6 -3 -2 -144 -9 -314 -15 -1657 -56 -3356 -351 -5270
-914 -982 -289 -2070 -687 -2835 -1038 l-75 -35 -145 146 c-407 409 -762 700
-1280 1046 -373 249 -647 408 -1070 620 -896 448 -1809 773 -2650 943 -205 42
-210 43 -210 32 0 -5 60 -41 132 -81 429 -234 877 -486 1263 -712 224 -131
903 -542 914 -553 3 -3 -127 62 -289 143 -2343 1184 -5117 1867 -8260 2033
-643 34 -1934 39 -2525 10 -454 -22 -806 -47 -816 -57 -11 -11 -167 -577 -299
-1083 -129 -497 -234 -951 -304 -1321 -20 -101 -53 -276 -75 -389 -208 -1073
-325 -2035 -392 -3205 -17 -302 -23 -1438 -10 -1750 55 -1262 244 -2370 591
-3470 81 -256 288 -768 414 -1022 236 -475 420 -779 645 -1061 103 -130 249
-282 270 -282 22 0 41 19 41 41 0 9 -33 117 -74 240 -119 359 -241 789 -321
1138 -36 157 -42 212 -10 99 26 -96 149 -441 230 -648 550 -1406 1411 -2822
2455 -4040 261 -304 489 -549 800 -861 376 -376 702 -672 958 -869 39 -30 71
-58 72 -62 0 -4 -28 -26 -62 -49 -268 -181 -710 -695 -1228 -1429 -162 -230
-400 -590 -400 -606 0 -30 25 -20 122 49 224 160 566 382 850 553 179 108 675
394 683 394 4 0 -20 -30 -53 -67 -260 -297 -568 -827 -791 -1360 -135 -324
-270 -727 -327 -978 -71 -313 -110 -420 -209 -587 -275 -463 -715 -917 -1437
-1483 -126 -98 -142 -118 -120 -152 15 -24 225 -59 440 -73 508 -34 1087 98
1636 372 120 60 607 349 971 577 105 65 191 117 193 116 2 -2 -28 -42 -67 -90
-256 -313 -499 -734 -746 -1290 -155 -350 -227 -548 -400 -1105 -156 -505
-246 -746 -379 -1010 -363 -723 -877 -1311 -1520 -1740 -124 -83 -137 -94
-134 -118 3 -30 21 -41 173 -106 443 -192 1007 -408 1310 -501 1084 -336 1927
-499 2925 -567 380 -25 1028 -13 1439 28 80 7 146 12 147 11 2 -2 -34 -19 -79
-39 -45 -20 -183 -82 -307 -138 -574 -260 -950 -387 -1373 -465 -655 -120
-1369 -113 -2137 21 -113 20 -209 37 -215 37 -5 1 -11 -7 -13 -19 -5 -31 241
-245 487 -423 781 -568 1804 -973 3133 -1241 372 -75 900 -162 1183 -195 72
-8 150 -18 174 -21 l45 -6 -135 -70 -134 -70 -95 1 c-501 8 -1214 132 -1772
308 -80 25 -153 43 -162 40 -38 -15 -15 -47 106 -148 267 -222 637 -483 916
-644 67 -38 121 -72 121 -75 0 -3 -75 -54 -167 -115 -267 -176 -602 -432 -854
-652 -232 -203 -508 -497 -508 -542 0 -48 41 -20 193 132 313 314 724 629
1270 972 l207 130 166 -82 c714 -352 1454 -564 2224 -638 323 -31 797 -30
1124 2 l61 5 -150 -102 c-147 -102 -152 -104 -295 -147 -694 -210 -1396 -307
-1985 -275 -119 7 -287 21 -373 33 -86 11 -166 21 -177 22 -10 1 -21 -5 -22
-13 -4 -16 10 -22 434 -186 264 -102 736 -271 988 -354 88 -29 163 -55 167
-59 4 -4 -49 -58 -119 -121 -485 -440 -1029 -1044 -1413 -1572 -233 -319 -500
-732 -500 -773 0 -45 37 -32 73 28 422 690 1184 1543 2015 2256 79 67 149 120
155 118 34 -12 370 -114 567 -171 795 -231 1756 -462 2507 -603 112 -21 203
-41 203 -44 0 -3 -92 -93 -205 -200 -201 -189 -475 -474 -650 -674 -112 -128
-357 -434 -413 -517 -42 -60 -39 -58 55 42 424 453 781 799 1178 1145 88 76
170 147 182 158 21 18 26 18 410 -47 2991 -504 6178 -674 9718 -516 1815 81
3750 283 5324 556 112 19 205 33 207 31 6 -6 -426 -414 -596 -562 -80 -69
-211 -181 -292 -248 -187 -155 -195 -182 -41 -146 680 160 1422 434 2113 779
124 61 221 107 215 102 -24 -25 -396 -226 -690 -374 -231 -116 -321 -166 -323
-179 -4 -23 -41 -23 898 -9 1221 18 2280 63 3215 136 365 28 1504 154 2035
225 345 46 1753 284 1948 329 96 22 298 67 450 100 698 149 770 167 1442 356
888 250 1456 441 2138 716 l223 90 292 -195 c1157 -770 2077 -1558 2845 -2435
83 -94 129 -139 135 -133 12 12 -158 242 -323 440 -361 432 -937 997 -1465
1436 -317 264 -708 562 -1070 815 -104 73 -196 138 -203 144 -10 9 30 31 185
101 109 49 349 164 533 256 514 257 877 465 1314 752 l229 151 155 -79 c474
-241 1115 -622 1586 -942 734 -499 1326 -991 1916 -1589 464 -471 833 -920
1196 -1454 113 -166 142 -195 157 -156 16 42 -278 509 -539 856 -511 678
-1224 1400 -1999 2021 -619 497 -1363 993 -2062 1374 -111 61 -202 113 -203
116 0 4 56 50 125 104 369 286 630 529 843 784 34 41 62 83 62 94 0 18 -5 19
-77 13 -43 -4 -89 -9 -103 -11 -282 -40 -649 -60 -850 -46 -338 24 -348 28
-149 62 423 71 920 229 1316 419 l122 58 303 -97 c397 -128 689 -235 1318
-483 276 -109 835 -360 1120 -503 925 -463 1700 -968 2237 -1457 72 -66 166
-157 208 -204 56 -61 83 -84 101 -84 39 0 30 36 -30 109 -83 101 -436 445
-571 557 -412 341 -937 702 -1405 966 -430 243 -492 275 -890 469 -475 230
-615 292 -1010 449 -25 9 -130 52 -235 95 -104 42 -215 86 -245 97 -30 11 -71
27 -90 34 -44 17 -345 121 -461 159 l-86 29 136 79 c359 210 950 632 951 681
0 13 -5 17 -17 13 -10 -2 -81 -23 -157 -46 -244 -72 -613 -138 -981 -176 -132
-13 -543 -45 -570 -44 -5 0 28 15 75 33 286 111 522 237 865 464 727 482 1254
1013 1481 1492 171 359 326 601 601 935 200 243 557 628 842 908 105 103 191
192 191 197 0 18 -19 19 -61 4 -281 -100 -721 -188 -1124 -226 -162 -15 -972
-18 -1130 -4 l-100 8 235 48 c380 77 648 149 1005 270 1282 436 2569 1099
3628 1868 64 47 117 92 117 99 0 7 -1 13 -3 13 -39 0 -467 45 -570 60 -739
108 -1503 402 -2277 876 -77 47 -142 89 -144 93 -3 4 38 -3 92 -15 535 -130
1309 -146 2082 -43 302 40 653 106 970 182 127 31 135 34 135 57 0 22 -6 25
-65 37 -370 75 -793 316 -1260 717 -152 130 -502 484 -674 681 -364 415 -748
925 -1141 1510 -259 386 -378 584 -662 1105 -515 941 -1082 1828 -1687 2640
-72 96 -133 179 -135 184 -2 4 32 -15 74 -44 428 -289 1105 -538 1642 -604
183 -23 194 -2 76 150 -469 607 -1071 1167 -1783 1661 -243 169 -618 400 -854
528 -122 65 -496 251 -523 259 -13 4 -23 10 -23 14 1 4 40 30 87 57 169 98
255 155 423 281 732 552 1340 1300 2032 2504 524 912 1023 2027 1409 3150 54
157 98 278 98 270 1 -29 -110 -507 -179 -774 -121 -459 -260 -928 -435 -1461
-41 -126 -75 -242 -75 -257 0 -21 6 -29 25 -34 14 -3 32 -1 40 6 18 15 164
271 313 550 528 984 1002 2163 1297 3225 392 1411 612 2838 675 4365 13 314
13 1153 0 1470 -42 1039 -155 2012 -346 2995 -162 828 -408 1741 -622 2300
l-38 100 -44 1 c-25 1 -79 -2 -120 -7z m-48810 -7428 c100 -29 119 -37 968
-427 1661 -763 3527 -1616 4334 -1980 227 -102 417 -189 421 -194 4 -4 -119
-10 -275 -13 -512 -12 -949 -61 -1244 -142 -423 -117 -522 -293 -291 -519 219
-215 755 -487 1550 -786 142 -54 261 -101 264 -104 4 -3 -16 -6 -43 -7 -27 0
-56 -2 -64 -3 -8 -2 -46 -6 -85 -10 -236 -23 -468 -90 -562 -162 -124 -94 -63
-236 168 -390 93 -62 360 -203 489 -258 36 -16 94 -41 130 -56 101 -44 438
-173 610 -234 85 -29 156 -58 157 -63 2 -5 -34 -18 -79 -30 -334 -85 -859
-274 -1176 -424 -255 -121 -445 -242 -568 -364 -92 -91 -127 -147 -150 -236
-76 -297 320 -572 1171 -812 152 -43 496 -130 560 -141 54 -10 430 -89 433
-91 2 -2 -20 -70 -47 -151 -95 -283 -127 -483 -118 -738 6 -184 26 -282 82
-403 112 -243 342 -421 633 -490 39 -9 72 -21 72 -25 0 -18 -144 -236 -223
-337 -83 -106 -322 -354 -430 -445 -355 -300 -794 -518 -1251 -621 -250 -56
-377 -68 -696 -69 -182 -1 -337 4 -405 12 -405 47 -828 154 -1253 314 l-132
51 -137 141 c-561 582 -1130 1378 -1639 2293 -233 419 -555 1087 -744 1543
-91 219 -90 221 16 28 107 -197 235 -419 420 -730 631 -1058 1076 -1675 1598
-2215 98 -101 136 -125 136 -83 0 12 -74 164 -164 338 -900 1743 -1523 3110
-2015 4419 -113 303 -295 823 -288 829 1 1 54 -126 116 -284 406 -1022 714
-1680 1029 -2202 153 -252 435 -656 522 -748 20 -21 24 -22 37 -9 14 13 -4 62
-157 429 -384 922 -575 1438 -726 1958 -77 263 -143 548 -164 708 -52 392
-141 769 -277 1172 -53 159 -173 473 -227 594 -14 33 -25 61 -23 62 4 4 38
-57 264 -470 213 -390 416 -785 474 -923 32 -78 47 -103 61 -103 10 0 21 6 24
14 8 20 -13 442 -31 613 -83 811 -311 1646 -615 2248 -144 287 -295 514 -445
674 -37 39 -66 71 -64 71 2 0 33 -8 69 -19z m47649 -1192 c-694 -2026 -1426
-3590 -2031 -4336 -60 -73 -71 -110 -43 -133 8 -7 25 -10 40 -6 28 7 501 472
646 637 250 281 478 575 648 836 59 88 112 169 119 180 21 30 -145 -292 -226
-437 -323 -580 -758 -1173 -1170 -1593 -464 -473 -730 -687 -1284 -1036 -80
-50 -152 -98 -158 -106 -16 -19 -5 -64 17 -72 10 -4 66 3 126 15 381 78 787
305 1170 654 69 62 260 245 343 327 8 9 -118 -275 -229 -514 -238 -512 -496
-1010 -713 -1376 l-105 -176 -157 -2 c-86 -1 -166 -4 -177 -7 -34 -8 -482 14
-610 31 -328 43 -575 123 -741 240 -72 52 -160 144 -198 209 -209 357 -5 924
585 1630 133 159 301 328 489 491 336 292 497 441 790 734 378 379 552 580
725 841 184 276 264 500 235 662 -25 140 -126 237 -284 273 l-50 11 100 54
c584 314 1150 833 1741 1595 119 154 326 443 438 612 44 66 81 119 83 118 1
-1 -52 -161 -119 -356z m-26789 -12450 c388 -35 736 -178 972 -398 41 -39 94
-96 118 -128 65 -85 66 -85 22 2 -48 95 -122 208 -243 367 -49 64 -89 121 -89
126 0 17 42 22 185 22 160 0 237 -10 383 -46 500 -124 900 -472 1162 -1009
146 -299 214 -560 227 -866 15 -377 -79 -668 -274 -850 -55 -51 -131 -105
-138 -97 -3 3 0 40 6 84 22 155 -3 371 -65 560 -39 116 -136 306 -212 412 -37
51 -68 91 -70 90 -1 -2 23 -55 55 -118 106 -216 150 -390 158 -631 8 -243 -20
-395 -104 -562 l-34 -69 -26 17 c-135 89 -375 238 -493 307 -1879 1098 -3939
1406 -6002 897 -497 -122 -1104 -330 -1400 -480 -63 -32 -88 -32 -88 -2 1 24
13 38 85 98 33 27 65 54 71 60 6 5 26 22 45 37 19 14 59 46 89 70 137 108 384
272 580 383 678 387 1514 651 2415 764 305 39 512 53 848 58 186 3 336 7 334
9 -9 10 -284 35 -477 44 -192 10 -890 0 -1022 -14 -31 -3 -38 -1 -38 13 0 34
333 144 585 194 238 48 395 61 705 61 157 0 344 -5 415 -12 400 -39 797 -118
1124 -223 51 -17 95 -28 98 -26 11 12 -303 170 -442 222 -221 82 -503 139
-882 179 l-218 22 83 32 c96 38 243 75 387 97 139 22 464 31 595 16 361 -42
704 -170 1001 -372 100 -69 262 -202 307 -253 51 -58 47 -41 -10 41 -106 154
-287 320 -465 427 -297 177 -726 294 -1172 319 -71 3 -60 22 26 45 268 72 629
105 883 81z m12635 -27 c105 -19 206 -41 288 -63 20 -5 37 -16 37 -23 0 -9
-29 -15 -107 -19 -314 -18 -655 -97 -916 -213 -267 -118 -486 -290 -644 -504
-68 -92 -68 -106 -2 -41 200 196 498 382 769 482 132 48 332 96 480 114 227
29 553 12 795 -40 82 -18 239 -70 275 -90 23 -13 23 -14 4 -15 -66 -1 -373
-34 -510 -56 -357 -55 -608 -137 -911 -300 -58 -31 -102 -58 -100 -61 3 -2 49
10 104 27 938 301 2025 315 2723 37 127 -51 140 -73 40 -69 -447 17 -782 22
-985 12 -207 -9 -471 -33 -482 -43 -2 -2 151 -7 339 -10 343 -6 529 -19 838
-58 609 -76 1194 -223 1725 -434 392 -155 861 -410 1141 -619 43 -33 95 -71
114 -84 81 -54 310 -257 310 -274 0 -34 -26 -29 -147 26 -569 261 -1364 491
-2073 600 -429 67 -750 90 -1215 90 -395 0 -618 -13 -945 -55 -1219 -154
-2398 -598 -3504 -1316 -70 -46 -129 -83 -131 -81 -1 2 -19 35 -39 75 -161
322 -135 790 65 1197 56 114 38 101 -55 -39 -74 -111 -131 -227 -176 -364 -65
-193 -86 -372 -66 -564 l8 -79 -24 12 c-133 69 -289 279 -341 460 -127 440
-22 1028 270 1518 144 241 360 479 548 604 275 183 582 278 898 278 146 0 187
-5 187 -22 0 -6 -42 -67 -93 -137 -122 -165 -143 -196 -217 -324 -61 -108 -78
-155 -26 -77 37 56 118 145 190 209 213 187 472 297 821 346 149 21 592 13
740 -13z m-13935 -3392 c613 -55 1132 -260 1615 -639 709 -556 1326 -1444
1808 -2603 290 -695 539 -1503 792 -2570 33 -141 33 -149 -3 -142 -16 3 -68
-2 -117 -11 -256 -48 -532 -176 -890 -413 -88 -59 -162 -107 -165 -107 -8 0
-282 -194 -375 -264 -1027 -779 -1736 -1233 -2368 -1515 -475 -213 -827 -315
-1292 -377 -145 -20 -216 -23 -485 -23 -427 -1 -662 27 -1015 120 -337 89
-557 173 -852 324 -304 156 -532 322 -802 585 -399 390 -683 786 -1011 1416
-157 301 -263 451 -459 653 -222 227 -446 386 -694 492 -62 27 -101 49 -99 56
5 19 128 233 257 448 761 1267 1672 2400 2530 3145 759 659 1553 1106 2315
1303 222 58 520 109 730 125 106 8 474 6 580 -3z m14885 -19 c498 -68 946
-208 1414 -441 871 -436 1647 -1073 2462 -2025 584 -682 1199 -1559 1653
-2360 38 -66 77 -134 87 -151 l18 -31 -107 -46 c-239 -104 -457 -253 -651
-447 -219 -218 -347 -395 -501 -695 -340 -658 -691 -1136 -1125 -1528 -104
-94 -364 -297 -368 -287 -1 2 -29 -14 -62 -36 -432 -292 -1026 -500 -1650
-580 -176 -23 -696 -26 -880 -6 -897 99 -1760 484 -2923 1304 -225 158 -645
465 -724 528 -70 56 -348 256 -380 273 -13 7 -117 75 -233 152 -278 187 -456
284 -658 360 -98 36 -257 74 -334 79 -80 6 -77 -12 -32 176 237 993 450 1697
715 2367 510 1290 1161 2235 1949 2830 439 331 944 524 1530 583 157 15 629 4
800 -19z m-6775 -7011 c371 -34 784 -129 1137 -261 112 -42 142 -49 202 -49
101 0 278 -25 416 -59 828 -205 1818 -863 2850 -1896 228 -229 526 -547 655
-700 37 -44 82 -96 100 -115 17 -19 50 -57 73 -85 23 -27 80 -94 127 -150 47
-55 92 -109 100 -119 8 -10 27 -33 41 -50 14 -17 64 -79 112 -138 l87 -106
-62 15 c-465 109 -1040 234 -1055 229 -7 -3 -13 -16 -13 -30 0 -23 12 -27 253
-94 138 -39 419 -117 622 -172 204 -56 375 -106 382 -113 7 -7 84 -106 173
-222 671 -878 1397 -1964 2088 -3125 l163 -275 -88 -17 c-1131 -219 -2945
-437 -4143 -499 -325 -16 -488 0 -582 60 -143 91 -87 259 177 529 121 125 101
116 215 98 19 -3 6 2 -28 12 l-64 17 114 96 c62 53 163 133 223 179 61 45 114
86 119 91 5 4 -70 -25 -165 -65 -96 -40 -263 -108 -372 -150 l-198 -77 -202
62 c-731 224 -1328 495 -1837 834 -460 307 -788 632 -1016 1006 -141 230 -249
519 -293 779 -6 36 -13 74 -15 85 -11 59 -30 198 -42 305 -28 255 -27 730 2
952 6 44 9 48 43 59 128 41 237 119 430 304 84 81 166 149 208 174 137 82 301
128 657 186 466 77 632 142 811 320 102 101 145 172 171 281 22 95 15 214 -18
285 -27 58 -219 282 -368 429 -399 392 -1022 562 -2065 562 -883 0 -1460 -121
-1860 -390 -121 -81 -202 -153 -346 -307 -139 -149 -196 -225 -240 -318 -76
-163 -26 -353 140 -529 111 -118 223 -188 386 -241 126 -41 185 -54 446 -97
520 -87 627 -132 876 -371 155 -149 238 -214 327 -255 50 -23 56 -29 57 -57 1
-18 3 -41 4 -52 15 -103 20 -222 20 -460 0 -351 -11 -490 -65 -805 -5 -30 -12
-71 -15 -90 -27 -167 -98 -377 -190 -565 -130 -265 -281 -472 -520 -710 -635
-635 -1670 -1142 -2994 -1470 -101 -25 -187 -48 -190 -51 -3 -3 5 -3 19 0 14
3 84 17 155 32 454 90 998 250 1425 419 723 285 1263 606 1710 1018 195 180
387 299 595 368 94 32 108 33 240 33 135 0 144 -1 247 -36 198 -68 361 -165
528 -313 288 -257 400 -345 616 -487 542 -359 1226 -651 2068 -884 l59 -16
-33 -14 c-88 -38 -650 -222 -845 -279 -514 -148 -886 -220 -1104 -213 -100 3
-121 6 -154 26 -76 48 -64 122 45 259 58 73 169 179 290 276 48 39 87 72 85
73 -1 1 -96 -22 -212 -51 -1310 -333 -3089 -539 -5065 -586 -1227 -29 -1860
57 -1860 251 0 32 8 47 53 96 96 106 295 219 627 357 159 66 490 187 512 187
6 0 9 2 6 5 -3 3 -104 -21 -224 -54 -2240 -609 -4967 -986 -7899 -1092 -170
-6 -331 -9 -356 -7 l-46 3 154 180 c760 885 1538 1735 2238 2444 225 228 279
278 325 298 109 50 721 293 995 396 976 366 1803 634 2840 917 775 211 873
240 878 261 12 45 -13 43 -280 -16 -969 -214 -1579 -368 -2118 -532 -483 -147
-745 -231 -1020 -324 -256 -86 -414 -143 -900 -323 l-70 -26 106 103 c389 373
774 730 1094 1012 l150 132 65 7 c655 67 1070 105 1585 141 298 22 362 29 372
42 9 12 10 20 2 30 -22 26 -1119 15 -1654 -16 -71 -4 -132 -5 -135 -3 -3 2 6
12 20 21 13 9 32 23 40 31 9 8 54 46 100 84 47 39 87 72 90 75 3 3 28 24 55
46 28 21 52 42 55 46 5 6 183 149 361 290 173 137 392 299 403 299 44 -1 1326
52 1344 56 23 5 31 37 11 49 -5 4 -278 6 -605 5 -326 0 -594 3 -594 7 2 18
549 390 850 578 608 378 1232 681 1750 850 297 97 640 170 905 195 127 12 419
12 517 1 l67 -7 83 57 c449 307 1104 540 1683 598 61 6 124 13 140 15 73 8
551 5 655 -4z m755 -751 c398 -22 681 -77 957 -184 41 -16 -32 -109 -117 -146
-22 -10 -100 -34 -172 -54 -218 -59 -421 -139 -818 -324 -126 -59 -250 -115
-275 -124 -144 -53 -335 -63 -497 -28 -177 38 -318 96 -628 256 -110 56 -236
117 -280 133 -44 17 -116 45 -161 62 -137 52 -197 104 -218 192 -8 36 10 47
139 88 280 89 614 131 1150 144 198 5 718 -4 920 -15z m-20205 -4159 c91 -5
203 -10 250 -11 121 -1 74 -14 -140 -38 -215 -25 -637 -54 -626 -44 1 2 56 27
122 58 110 51 123 54 174 50 30 -3 129 -10 220 -15z"/>
<path d="M22410 17510 c-1236 -117 -2217 -873 -2749 -2117 -127 -298 -236
-670 -286 -973 -3 -19 -8 -48 -11 -65 -11 -67 -13 -82 -18 -125 -3 -25 -8 -61
-10 -80 -6 -43 -16 -164 -21 -245 -5 -75 -5 -536 -1 -590 2 -22 7 -76 10 -120
4 -44 9 -96 11 -115 3 -19 8 -55 11 -80 5 -43 7 -57 19 -130 13 -80 18 -103
41 -210 98 -457 263 -879 492 -1260 296 -492 702 -906 1189 -1212 813 -509
1766 -587 2643 -216 898 380 1631 1217 1972 2252 73 223 144 525 173 736 3 25
8 56 10 70 10 66 20 173 30 325 5 81 6 494 0 575 -6 105 -21 256 -30 310 -2
14 -7 48 -10 75 -12 93 -65 349 -96 464 -124 460 -340 929 -604 1306 -186 266
-469 574 -700 759 -435 349 -925 570 -1437 647 -153 23 -479 33 -628 19z m464
-115 c789 -92 1532 -521 2061 -1189 89 -112 132 -173 114 -161 -8 6 -1 -3 16
-18 16 -16 23 -26 15 -22 -8 4 -4 -3 10 -14 14 -11 21 -21 15 -21 -5 0 -2 -5
8 -11 9 -6 15 -14 12 -19 -3 -4 2 -11 11 -14 8 -3 12 -10 9 -16 -3 -5 -1 -10
5 -10 6 0 9 -4 6 -9 -3 -5 1 -12 10 -15 9 -4 14 -13 10 -22 -3 -8 -2 -13 3 -9
18 11 187 -311 282 -535 202 -482 318 -1089 319 -1671 0 -112 -51 -378 -105
-544 -7 -22 -23 -74 -35 -115 -28 -93 -73 -212 -148 -395 -22 -52 -165 -338
-197 -393 -187 -319 -377 -567 -614 -801 -392 -386 -884 -668 -1386 -797 -55
-14 -109 -28 -120 -29 -235 -42 -364 -55 -565 -56 -370 -2 -721 67 -1078 213
l-123 51 38 40 38 41 -51 -45 c-108 -94 -247 -146 -365 -136 -178 15 -333 127
-424 308 -45 88 -64 164 -72 282 -5 77 -10 100 -23 107 -26 14 -240 253 -331
370 -81 104 -239 333 -239 346 0 4 -6 15 -14 23 -44 51 -223 410 -293 586
-134 340 -238 740 -250 955 -6 118 10 414 32 583 121 916 512 1724 1127 2323
491 479 1062 763 1682 838 153 19 453 19 610 1z"/>
<path d="M22445 16404 c-16 -2 -70 -9 -120 -15 -806 -101 -1546 -750 -1868
-1639 -126 -349 -176 -624 -184 -1020 -9 -447 46 -787 189 -1180 76 -207 255
-539 379 -703 3 -4 31 4 62 18 298 131 620 -58 703 -414 10 -40 16 -110 15
-179 l0 -112 87 -44 c416 -209 935 -263 1393 -147 981 248 1712 1200 1829
2380 15 153 12 490 -5 658 -14 132 -59 396 -71 415 -3 4 -41 -11 -86 -33 -115
-58 -207 -79 -343 -79 -135 0 -228 21 -343 79 -238 120 -407 345 -489 651 -34
128 -42 334 -19 466 31 180 89 325 188 471 26 40 42 70 35 67 -8 -3 -53 20
-101 50 -229 144 -497 244 -776 291 -90 15 -411 28 -475 19z"/>
<path d="M24340 16351 c-26 -4 10 -6 85 -6 89 0 114 2 80 6 -59 8 -103 8 -165
0z"/>
<path d="M24258 16333 c6 -2 18 -2 25 0 6 3 1 5 -13 5 -14 0 -19 -2 -12 -5z"/>
<path d="M24605 16325 c28 -7 63 -18 79 -25 16 -6 31 -9 33 -6 6 6 -118 46
-141 45 -12 0 2 -6 29 -14z"/>
<path d="M24172 16313 c-24 -8 -41 -17 -39 -19 2 -2 28 5 58 15 30 11 47 20
39 19 -8 0 -34 -6 -58 -15z"/>
<path d="M24039 16249 l-24 -20 30 17 c39 24 40 24 28 24 -6 0 -21 -9 -34 -21z"/>
<path d="M24810 16247 c0 -3 12 -12 26 -22 15 -9 23 -12 20 -6 -7 11 -46 35
-46 28z"/>
<path d="M23924 16168 l-19 -23 23 19 c21 18 27 26 19 26 -2 0 -12 -10 -23
-22z"/>
<path d="M24914 16171 c7 -11 46 -35 46 -28 0 3 -12 12 -26 22 -15 9 -23 12
-20 6z"/>
<path d="M25089 14663 c-13 -16 -12 -17 4 -4 9 7 17 15 17 17 0 8 -8 3 -21
-13z"/>
<path d="M25059 14623 c-13 -16 -12 -17 4 -4 9 7 17 15 17 17 0 8 -8 3 -21
-13z"/>
<path d="M25029 14583 c-13 -16 -12 -17 4 -4 16 13 21 21 13 21 -2 0 -10 -8
-17 -17z"/>
<path d="M24960 14517 c-25 -23 -58 -53 -75 -65 -19 -14 -22 -19 -8 -12 22 10
143 119 133 119 -3 0 -25 -19 -50 -42z"/>
<path d="M20809 11823 c-13 -16 -12 -17 4 -4 16 13 21 21 13 21 -2 0 -10 -8
-17 -17z"/>
<path d="M20749 11773 c-13 -16 -12 -17 4 -4 9 7 17 15 17 17 0 8 -8 3 -21
-13z"/>
<path d="M21489 10873 c-13 -16 -12 -17 4 -4 16 13 21 21 13 21 -2 0 -10 -8
-17 -17z"/>
<path d="M38140 17514 c-683 -61 -1248 -283 -1755 -690 -499 -402 -919 -1026
-1154 -1718 -78 -227 -150 -505 -176 -671 -8 -57 -15 -96 -20 -125 -3 -14 -7
-50 -11 -80 -3 -30 -7 -66 -9 -80 -5 -33 -14 -128 -20 -215 -7 -82 -7 -567 -1
-640 12 -146 29 -298 42 -377 102 -640 324 -1213 655 -1698 231 -339 549 -664
877 -898 428 -307 840 -479 1327 -554 188 -29 577 -31 760 -5 871 128 1630
609 2185 1387 321 450 561 1013 674 1585 25 126 26 127 32 175 3 25 8 52 9 61
2 9 6 38 9 65 4 27 9 65 11 84 15 116 20 249 20 520 -1 301 -7 422 -30 585 -2
17 -7 53 -11 80 -3 28 -8 59 -10 70 -2 11 -9 49 -15 85 -49 309 -194 747 -359
1085 -521 1067 -1433 1792 -2450 1946 -130 19 -468 33 -580 23z m370 -114
c642 -67 1232 -340 1745 -808 171 -155 430 -451 423 -483 -2 -7 4 -13 12 -14
8 0 14 -8 14 -18 -1 -10 11 -27 27 -39 15 -12 26 -25 23 -30 -3 -4 -1 -8 4 -8
5 0 21 -18 36 -40 14 -22 23 -40 19 -40 -4 0 2 -7 13 -15 10 -8 15 -15 10 -15
-6 0 -3 -6 6 -12 38 -30 234 -406 309 -593 132 -332 232 -727 274 -1087 21
-182 38 -545 30 -633 -19 -196 -129 -596 -245 -885 -60 -151 -188 -407 -278
-557 -408 -680 -1002 -1192 -1668 -1437 -116 -43 -338 -109 -404 -121 -233
-41 -371 -54 -566 -56 -380 -2 -749 72 -1116 226 -49 20 -85 41 -82 46 10 16
-6 9 -56 -25 -333 -229 -757 36 -787 492 l-6 97 -108 115 c-272 291 -458 554
-632 897 -184 362 -310 736 -388 1143 -20 104 -21 135 -15 320 21 692 198
1340 524 1915 72 127 243 380 338 500 112 140 408 437 544 545 301 239 666
430 1011 529 133 38 282 68 423 85 133 17 435 19 566 6z m2221 -1347 c13 -16
12 -17 -3 -4 -17 13 -22 21 -14 21 2 0 10 -8 17 -17z"/>
<path d="M38110 16404 c-669 -64 -1275 -448 -1680 -1066 -229 -348 -381 -756
-450 -1203 -28 -177 -38 -592 -21 -783 49 -514 212 -985 487 -1399 41 -62 76
-113 78 -113 2 0 29 11 60 25 243 108 512 1 640 -255 59 -118 79 -210 74 -344
l-3 -105 90 -44 c567 -279 1236 -278 1803 3 456 227 832 604 1086 1091 162
309 260 615 318 989 19 125 22 186 22 445 1 320 -9 440 -58 668 l-22 107 50
40 c28 21 71 60 96 86 28 30 16 21 -33 -23 -84 -76 -206 -146 -322 -185 -61
-20 -89 -23 -225 -23 -144 0 -161 2 -235 28 -262 92 -460 302 -564 601 -118
336 -64 744 134 1027 44 62 44 62 22 74 -12 6 -52 30 -90 53 -232 144 -494
241 -767 287 -93 16 -400 27 -490 19z"/>
<path d="M40110 16350 c30 -5 71 -8 90 -8 28 1 25 2 -15 8 -27 5 -68 8 -90 8
-35 -1 -33 -2 15 -8z"/>
<path d="M39950 16340 c-16 -5 -2 -6 35 -3 33 3 62 7 64 9 8 7 -74 2 -99 -6z"/>
<path d="M40300 16320 c36 -10 66 -17 68 -15 5 5 -98 35 -117 34 -9 0 13 -9
49 -19z"/>
<path d="M39898 16323 c7 -3 16 -2 19 1 4 3 -2 6 -13 5 -11 0 -14 -3 -6 -6z"/>
<path d="M39820 16300 c-8 -5 -10 -10 -5 -10 6 0 17 5 25 10 8 5 11 10 5 10
-5 0 -17 -5 -25 -10z"/>
<path d="M40380 16297 c0 -3 15 -10 32 -16 18 -6 28 -7 23 -2 -12 10 -55 25
-55 18z"/>
<path d="M39758 16274 c-39 -21 -35 -28 5 -8 37 19 44 24 31 24 -5 -1 -21 -8
-36 -16z"/>
<path d="M40460 16260 c35 -24 54 -31 30 -11 -14 11 -29 21 -35 21 -5 0 -3 -5
5 -10z"/>
<path d="M39689 16233 c-13 -17 -13 -17 6 -3 11 8 22 16 24 17 2 2 0 3 -6 3
-6 0 -17 -8 -24 -17z"/>
<path d="M39606 16175 c-11 -8 -15 -15 -9 -15 6 0 16 7 23 15 16 19 11 19 -14
0z"/>
<path d="M40602 16165 c15 -16 29 -27 31 -24 3 2 -10 15 -27 28 l-31 24 27
-28z"/>
<path d="M39549 16123 l-24 -28 28 24 c25 23 32 31 24 31 -2 0 -14 -12 -28
-27z"/>
<path d="M40734 14618 l-19 -23 23 19 c21 18 27 26 19 26 -2 0 -12 -10 -23
-22z"/>
<path d="M36434 11778 l-29 -33 33 29 c17 17 32 31 32 33 0 8 -8 1 -36 -29z"/>
<path d="M37164 10868 l-19 -23 23 19 c21 18 27 26 19 26 -2 0 -12 -10 -23
-22z"/>
<path d="M37124 10818 l-19 -23 23 19 c12 11 22 21 22 23 0 8 -8 2 -26 -19z"/>
<path d="M35665 3580 c17 -4 41 -8 55 -8 22 0 22 1 -5 8 -16 4 -41 8 -55 8
-22 0 -22 -1 5 -8z"/>
</g>
</svg>
