<?xml version="1.0" standalone="no"?>
<!DOCTYPE svg PUBLIC "-//W3C//DTD SVG 20010904//EN"
 "http://www.w3.org/TR/2001/REC-SVG-20010904/DTD/svg10.dtd">
<svg version="1.0" xmlns="http://www.w3.org/2000/svg"
 width="4465.000000pt" height="5289.000000pt" viewBox="0 0 4465.000000 5289.000000"
 preserveAspectRatio="xMidYMid meet">

<g transform="translate(0.000000,5289.000000) scale(0.100000,-0.100000)"
fill="#000000" stroke="none">
<path d="M6335 51727 c-322 -107 -492 -540 -759 -1927 -25 -129 -100 -523
-166 -875 -67 -352 -163 -852 -215 -1110 -144 -725 -197 -1038 -260 -1539
-142 -1136 -147 -2201 -14 -3141 265 -1875 1037 -3425 2523 -5060 l127 -140
-6 -60 c-14 -154 -17 -569 -6 -696 33 -363 128 -688 278 -953 58 -102 197
-296 213 -296 6 0 7 -88 3 -217 -22 -792 163 -1948 508 -3174 27 -96 49 -178
49 -181 0 -3 -73 -8 -162 -12 -601 -25 -963 -206 -1019 -510 -33 -181 87 -441
299 -650 l60 -58 248 26 c946 98 2051 140 3129 117 537 -11 687 -17 1220 -46
498 -28 1456 -98 1626 -120 l46 -6 14 48 c21 71 16 213 -9 306 -12 42 -22 80
-22 83 0 3 28 -11 63 -31 97 -57 452 -229 557 -271 356 -140 729 -232 1083
-265 190 -17 604 -7 782 21 261 39 553 117 756 200 40 17 87 36 104 43 80 32
362 180 453 237 147 92 328 231 462 354 238 220 368 335 474 420 294 235 564
398 756 456 110 33 117 37 136 65 16 24 16 42 5 223 -6 108 -18 258 -27 332
-20 175 -20 175 4 310 60 333 53 710 -19 1080 -108 561 -356 1153 -768 1833
-54 89 -148 244 -209 344 -60 100 -115 197 -121 216 -11 34 -9 40 74 188 115
205 330 642 395 804 288 715 330 1266 141 1836 -194 582 -651 1176 -1434 1867
-96 84 -121 111 -100 106 65 -15 292 -111 390 -166 297 -165 448 -290 893
-739 313 -315 373 -372 422 -394 95 -43 135 -17 168 111 42 159 37 431 -11
711 -75 441 -294 1085 -573 1692 -36 79 -66 145 -66 147 0 7 193 -92 286 -147
136 -80 367 -238 484 -331 225 -180 396 -355 589 -603 193 -249 332 -375 413
-375 150 0 167 412 52 1290 -39 302 -100 693 -129 825 -127 589 -379 1081
-735 1435 -322 320 -738 545 -1230 664 -263 63 -462 86 -805 93 -368 7 -640
-14 -940 -72 -66 -12 -121 -22 -123 -20 -6 5 224 171 406 293 680 454 1389
789 2021 956 73 19 135 37 138 39 6 7 -273 142 -372 180 -49 19 -150 54 -223
78 l-133 44 -132 -34 c-497 -126 -1149 -340 -1644 -540 l-173 -69 -157 73
c-5435 2515 -8294 3886 -9253 4437 -195 112 -317 170 -450 216 -93 31 -119 36
-225 39 -81 2 -133 -1 -160 -10z m1552 -1023 c634 -142 1525 -484 2403 -924
978 -489 1815 -1021 2425 -1541 130 -111 454 -430 525 -519 l45 -54 -40 24
c-22 13 -173 110 -335 214 -2063 1324 -3792 2272 -5125 2809 -58 23 -28 21
102 -9z m-282 -3606 c793 -299 1471 -684 2050 -1164 164 -136 529 -500 665
-664 484 -582 826 -1213 1075 -1982 57 -175 65 -209 54 -221 -8 -8 -25 -29
-39 -47 -14 -18 -40 -49 -57 -69 -18 -20 -33 -39 -33 -42 0 -4 -16 -24 -35
-45 -19 -22 -35 -42 -35 -45 0 -3 -8 -15 -17 -27 -10 -11 -25 -30 -33 -42 -8
-12 -25 -34 -38 -48 -12 -15 -35 -45 -50 -67 -15 -22 -31 -45 -37 -51 -5 -6
-17 -22 -25 -34 -8 -12 -25 -34 -37 -48 -13 -15 -23 -30 -23 -33 0 -3 -9 -16
-19 -28 -11 -12 -37 -48 -58 -79 -21 -31 -43 -62 -50 -69 -6 -7 -22 -29 -34
-50 -13 -21 -29 -45 -36 -53 -18 -22 -303 -451 -303 -456 0 -2 -16 -26 -35
-53 -19 -26 -35 -52 -35 -55 0 -4 -10 -22 -23 -39 -25 -35 -37 -55 -67 -107
-11 -19 -28 -47 -38 -62 -44 -69 -122 -200 -122 -205 0 -4 -6 -14 -14 -22 -7
-9 -28 -43 -46 -76 -17 -33 -35 -64 -40 -70 -4 -5 -21 -35 -38 -65 -16 -30
-40 -73 -52 -95 -13 -22 -33 -58 -45 -80 -12 -22 -39 -71 -61 -110 -68 -125
-133 -248 -185 -351 -48 -97 -53 -102 -87 -108 -60 -10 -528 -7 -668 4 -255
20 -466 55 -673 112 -105 29 -114 33 -126 62 -31 74 -155 423 -241 681 -532
1578 -819 2968 -885 4285 -13 262 -7 894 11 1105 22 263 72 660 95 762 5 22 7
22 168 -33 89 -31 234 -83 322 -116z m4795 -2961 c0 -2 -17 -19 -37 -38 l-38
-34 34 38 c33 34 41 42 41 34z m-160 -171 c0 -2 -8 -10 -17 -17 -16 -13 -17
-12 -4 4 13 16 21 21 21 13z m2729 -7711 c216 -32 386 -119 542 -274 87 -88
123 -138 180 -252 67 -135 92 -247 93 -419 0 -120 -4 -161 -23 -235 -89 -346
-355 -613 -692 -695 -697 -170 -1317 430 -1174 1135 3 17 19 67 35 113 149
430 589 695 1039 627z m-1432 -551 c-238 -360 -391 -759 -458 -1194 -27 -174
-37 -536 -20 -717 49 -517 238 -1036 520 -1423 22 -30 52 -73 68 -95 82 -117
261 -311 392 -425 35 -30 69 -60 75 -66 33 -30 133 -108 183 -141 167 -112
164 -110 283 -177 108 -61 26 -29 -155 60 -507 250 -947 570 -1490 1084 -309
293 -602 460 -975 555 -36 10 -74 19 -85 21 -90 16 -165 25 -252 30 -67 5
-103 11 -103 18 0 30 99 298 130 351 58 101 237 383 328 515 445 652 976 1227
1532 1659 63 49 116 88 117 87 2 -1 -39 -65 -90 -142z m5372 -794 c155 -301
270 -578 387 -925 72 -217 149 -479 163 -563 13 -70 40 -334 47 -457 l5 -90
-109 -43 c-128 -51 -311 -153 -467 -260 -132 -91 -367 -277 -451 -358 -34 -33
-101 -94 -150 -137 -49 -42 -131 -116 -183 -163 -116 -105 -265 -218 -403
-304 -114 -71 -443 -240 -468 -240 -8 0 26 21 75 46 135 70 356 201 375 223 3
3 41 33 85 65 44 33 82 62 85 65 3 3 34 31 70 61 35 30 102 93 148 140 l83 85
-78 6 c-99 8 -167 30 -242 80 -156 104 -235 296 -197 477 38 183 181 329 359
367 236 50 475 -91 547 -322 l17 -57 71 145 c156 319 252 650 292 1009 17 143
14 493 -4 649 -26 218 -98 531 -152 661 -32 76 9 7 95 -160z"/>
<path d="M37980 50465 c-216 -43 -526 -196 -989 -487 -374 -236 -728 -477
-2051 -1398 -487 -339 -1081 -752 -1320 -917 -438 -304 -522 -370 -686 -543
-434 -461 -688 -1083 -766 -1875 -29 -298 -11 -887 37 -1234 l15 -104 192
-196 c106 -108 205 -206 221 -219 15 -13 27 -28 27 -33 0 -5 30 -39 68 -75 37
-36 67 -68 67 -72 0 -4 24 -31 54 -59 30 -29 51 -53 48 -53 -3 0 15 -20 41
-45 26 -25 43 -45 39 -45 -4 0 12 -18 34 -40 23 -22 39 -40 36 -40 -3 0 11
-17 31 -38 43 -44 87 -96 85 -99 -1 -1 12 -17 30 -35 18 -19 46 -51 62 -72 17
-22 39 -47 49 -57 11 -11 17 -19 13 -19 -3 0 6 -13 21 -28 15 -16 38 -43 52
-62 14 -18 32 -41 40 -50 43 -52 49 -60 46 -60 -3 0 8 -13 22 -29 28 -30 30
-32 77 -96 17 -22 35 -45 40 -51 6 -6 17 -22 25 -34 8 -12 21 -29 28 -36 7 -8
11 -14 7 -14 -3 0 4 -11 17 -25 30 -32 37 -41 78 -100 19 -27 37 -52 40 -55
22 -22 58 -79 53 -84 -4 -3 -1 -6 5 -6 6 0 31 -30 56 -67 25 -38 55 -80 67
-95 11 -16 17 -28 12 -28 -4 0 -3 -4 3 -8 9 -5 218 -313 271 -398 7 -10 47
-75 91 -144 43 -69 81 -132 85 -140 4 -8 15 -27 25 -42 90 -138 351 -609 483
-873 50 -99 94 -183 98 -187 7 -9 304 20 591 57 765 99 1377 261 1667 441 152
94 328 296 424 487 91 178 177 438 234 702 70 327 104 570 190 1359 117 1074
183 1434 361 1990 206 642 323 1223 390 1946 22 236 30 945 15 1203 -29 468
-84 850 -176 1223 -150 604 -368 991 -598 1059 -60 18 -89 18 -177 0z m-20
-1905 c111 -153 197 -297 298 -500 182 -363 317 -754 423 -1225 36 -162 36
-173 -11 -471 -58 -363 -160 -809 -255 -1114 -115 -367 -158 -517 -194 -675
-91 -394 -150 -795 -236 -1615 -76 -723 -144 -1154 -230 -1460 -118 -421 -289
-702 -520 -854 -155 -103 -511 -223 -913 -306 -256 -54 -825 -141 -836 -129
-2 2 -39 78 -81 169 -442 948 -688 1752 -782 2555 -25 217 -25 801 0 1005 66
530 193 956 432 1445 263 542 625 1056 1165 1660 178 198 820 841 1075 1076
279 257 584 529 592 529 5 0 37 -41 73 -90z"/>
<path d="M28224 39010 c-398 -33 -777 -166 -1123 -394 -363 -239 -709 -612
-957 -1028 -70 -119 -147 -268 -141 -274 2 -2 30 33 63 78 143 200 374 456
567 626 250 220 429 343 682 467 577 284 1114 315 1930 113 299 -74 765 -242
1118 -404 770 -352 1578 -930 2069 -1481 247 -277 401 -491 626 -869 31 -52
21 -19 -35 126 -166 427 -394 789 -748 1188 -749 845 -1967 1542 -3105 1776
-349 72 -677 98 -946 76z"/>
<path d="M28755 37903 c-33 -2 -127 -10 -210 -18 -738 -75 -1371 -330 -1929
-777 -134 -108 -440 -416 -550 -553 -373 -469 -668 -1028 -874 -1655 -69 -212
-188 -627 -237 -834 -83 -348 -163 -867 -142 -929 6 -20 45 -48 155 -113 418
-248 916 -584 1527 -1028 319 -232 479 -334 690 -436 410 -200 834 -325 1325
-392 142 -19 211 -22 490 -23 331 0 411 6 655 46 361 60 763 197 1069 365 139
77 359 225 491 330 147 119 376 349 504 509 250 310 577 651 816 849 241 201
506 361 717 435 99 34 228 61 297 61 52 0 88 20 101 56 12 31 -18 213 -61 374
-17 63 -46 174 -65 245 -160 609 -471 1182 -956 1757 -136 162 -410 438 -573
577 -728 625 -1570 1012 -2450 1125 -236 31 -550 42 -790 29z m2380 -1241
c790 -475 1562 -1298 2178 -2324 92 -152 110 -189 131 -270 23 -88 30 -128 27
-155 -1 -6 -20 -14 -43 -18 -93 -14 -268 -69 -367 -116 -57 -27 -105 -49 -106
-49 -2 0 -39 -21 -82 -46 -416 -246 -854 -650 -1278 -1179 -394 -490 -930
-858 -1523 -1044 -128 -40 -186 -56 -232 -65 -14 -3 -68 -14 -120 -25 -125
-26 -280 -48 -410 -58 -193 -15 -620 -7 -722 12 -13 3 -50 8 -83 11 -50 5
-142 20 -310 51 -16 3 -73 16 -125 30 -52 13 -104 26 -115 28 -45 10 -199 60
-326 106 -329 119 -612 269 -886 471 -625 460 -1211 858 -1651 1122 l-113 68
6 71 c3 40 13 115 21 167 9 52 18 109 20 125 22 134 64 294 118 443 316 871
770 1630 1292 2159 129 132 142 140 67 41 -63 -83 -172 -257 -236 -378 -182
-344 -300 -744 -338 -1143 -15 -166 -7 -574 16 -717 62 -407 185 -762 378
-1100 61 -106 154 -247 184 -280 13 -14 23 -28 23 -31 0 -3 8 -15 18 -27 9
-11 40 -49 67 -83 78 -97 251 -273 355 -363 52 -44 105 -90 118 -101 13 -11
43 -33 67 -50 154 -107 225 -155 229 -155 3 0 21 -11 40 -24 58 -39 334 -172
446 -214 138 -52 274 -95 385 -122 895 -213 1826 -24 2555 519 239 178 486
425 635 635 11 16 29 40 41 55 44 55 173 272 235 396 100 200 150 328 209 536
180 634 149 1337 -86 1942 -52 135 -183 397 -255 512 -139 222 -348 475 -524
635 -144 130 -144 130 70 2z m-3706 -58 c157 -23 257 -60 386 -142 140 -90
260 -226 335 -383 68 -142 84 -219 84 -404 0 -185 -16 -262 -84 -404 -52 -109
-111 -190 -196 -272 -115 -109 -233 -177 -391 -226 -80 -24 -104 -27 -253 -27
-143 -1 -175 2 -244 22 -189 55 -314 130 -446 269 -144 151 -225 327 -250 539
-22 188 22 396 121 570 50 89 164 215 259 286 120 91 292 159 449 178 101 11
116 11 230 -6z m3549 -3489 c223 -66 367 -289 332 -510 -40 -247 -275 -424
-515 -386 -135 21 -277 117 -338 229 -71 132 -76 285 -14 417 59 123 181 225
305 254 60 14 174 12 230 -4z"/>
<path d="M36273 35528 c3 -18 23 -134 45 -258 23 -124 55 -322 72 -440 17
-118 32 -219 34 -225 18 -56 18 812 0 918 l-7 37 -75 0 -75 0 6 -32z"/>
<path d="M20560 31861 c0 -63 56 -128 150 -176 36 -18 133 -54 215 -80 340
-108 488 -185 650 -336 108 -102 172 -208 239 -399 53 -148 118 -276 172 -338
l47 -54 -6 -171 c-28 -801 -299 -1468 -762 -1879 -531 -473 -1318 -648 -2159
-482 -425 84 -848 264 -1226 521 -183 125 -299 221 -451 373 -147 146 -147
146 -69 -10 271 -538 880 -990 1580 -1174 594 -157 1208 -133 1790 69 219 77
400 163 665 320 180 106 443 235 550 271 81 26 103 29 220 29 117 0 139 -3
220 -30 50 -16 173 -72 275 -124 102 -51 271 -137 375 -190 255 -130 483 -205
826 -275 293 -59 541 -85 879 -93 650 -15 1197 90 1646 315 119 60 267 153
334 211 l35 30 -120 -45 c-396 -147 -849 -249 -1330 -300 -224 -24 -685 -24
-890 0 -1129 130 -1848 704 -2119 1691 -58 213 -99 461 -111 680 -3 55 -8 132
-11 171 -4 70 -4 72 20 78 69 17 170 165 219 321 75 237 92 286 125 348 64
123 209 257 338 312 78 34 203 73 300 95 212 47 436 189 503 317 10 20 6 19
-61 -12 -165 -75 -252 -92 -603 -115 -301 -20 -333 -34 -580 -270 -102 -97
-166 -144 -226 -165 -97 -35 -146 -12 -246 110 -108 132 -286 252 -431 291
-72 19 -334 42 -472 42 -185 0 -364 43 -460 113 -36 26 -40 27 -40 10z"/>
<path d="M9375 31099 c-675 -27 -1454 -86 -1992 -150 l-182 -22 15 -36 c30
-75 114 -181 259 -330 199 -203 427 -411 453 -411 11 0 130 18 264 40 687 112
1411 185 2313 232 311 16 1605 16 1970 0 372 -17 780 -40 1049 -60 l226 -17
44 22 c80 41 125 122 111 203 -10 57 -56 147 -113 222 -29 37 -52 69 -52 71 0
3 26 14 58 26 31 11 75 32 97 45 l39 24 -44 6 c-201 27 -1348 96 -2125 127
-344 13 -2113 20 -2390 8z"/>
<path d="M7378 31073 c7 -3 16 -2 19 1 4 3 -2 6 -13 5 -11 0 -14 -3 -6 -6z"/>
<path d="M10980 30270 c-1008 -31 -1675 -81 -2430 -181 -244 -32 -472 -67
-478 -74 -2 -2 32 -34 76 -71 l79 -67 -33 -131 c-43 -171 -79 -371 -95 -520
-17 -168 -7 -468 20 -614 27 -143 78 -305 94 -298 61 25 670 222 844 272 1132
326 2485 553 3893 654 338 24 837 50 954 50 46 0 103 3 128 6 l44 6 -8 66
c-25 210 -144 459 -350 733 l-79 106 -92 6 c-741 51 -1914 77 -2567 57z"/>
<path d="M13835 29133 c-1087 -56 -2168 -167 -3020 -309 -833 -139 -1730 -349
-2392 -560 -95 -30 -173 -57 -173 -60 0 -14 67 -133 121 -215 75 -112 257
-299 379 -389 336 -247 769 -405 1390 -509 482 -81 812 -106 1275 -98 334 6
464 16 695 58 491 87 849 265 1004 498 127 190 132 427 16 668 -45 92 -129
220 -196 300 -24 28 -44 54 -44 57 0 3 24 6 53 6 77 0 296 27 417 51 265 53
468 151 584 280 45 50 99 148 112 202 l6 27 -83 -2 c-46 -1 -111 -3 -144 -5z"/>
<path d="M12800 16002 c-933 -755 -1676 -1554 -2255 -2427 -191 -287 -313
-496 -459 -785 -359 -709 -557 -1360 -632 -2075 -25 -235 -25 -744 0 -970 95
-870 391 -1667 920 -2484 65 -101 68 -103 98 -97 66 13 341 46 508 61 245 22
759 30 1010 16 789 -45 1443 -189 2045 -451 248 -108 427 -206 665 -365 210
-140 345 -250 534 -435 87 -85 156 -146 153 -135 -4 11 -27 91 -52 178 -144
497 -453 1454 -645 1992 -193 544 -482 1294 -650 1690 -407 961 -713 1917
-921 2885 -28 129 -53 244 -56 255 -62 267 -161 969 -198 1405 -41 498 -53
1203 -26 1588 7 101 11 186 9 187 -2 2 -24 -13 -48 -33z m-1220 -1579 c-167
-208 -371 -512 -537 -801 -422 -735 -716 -1544 -848 -2335 -65 -388 -85 -637
-85 -1047 0 -403 20 -660 82 -1025 67 -402 185 -843 325 -1209 18 -49 32 -93
31 -98 -5 -15 -236 227 -316 331 -341 441 -539 969 -614 1631 -8 72 -13 233
-12 430 0 260 4 347 23 499 76 636 255 1226 552 1821 285 569 631 1059 1074
1519 101 105 382 371 391 371 2 0 -28 -39 -66 -87z"/>
<path d="M31847 14428 c-76 -703 -337 -2024 -578 -2933 -315 -1184 -477 -1740
-720 -2469 -251 -755 -511 -1657 -879 -3051 -473 -1795 -652 -2370 -894 -2880
-36 -74 -63 -135 -61 -135 8 0 121 209 181 334 232 488 436 1073 773 2221 196
669 243 831 421 1447 279 969 392 1340 580 1914 358 1090 610 2016 814 2989
185 885 304 1657 361 2345 8 102 17 204 19 228 5 61 -10 52 -17 -10z"/>
<path d="M16630 12091 c-287 -88 -503 -513 -664 -1310 l-42 -203 -106 158
c-277 414 -496 605 -698 608 -231 4 -384 -267 -457 -809 -22 -166 -25 -753 -5
-945 34 -322 75 -539 137 -727 101 -304 240 -501 413 -585 61 -30 75 -33 162
-33 83 0 103 4 153 27 221 104 356 414 370 848 l2 75 84 -160 c372 -713 710
-1106 1047 -1221 64 -22 97 -27 174 -27 111 0 173 20 271 85 207 138 367 509
421 973 28 241 10 686 -37 956 -8 46 -15 91 -15 99 0 8 31 -44 69 -115 174
-332 359 -595 550 -786 138 -137 232 -205 350 -253 70 -29 85 -31 197 -31 118
0 121 1 195 37 514 255 589 1408 149 2303 -185 378 -404 633 -689 804 -150 90
-288 131 -446 131 -194 0 -308 -58 -375 -191 -79 -153 -62 -445 44 -761 12
-38 21 -68 20 -68 -1 0 -37 55 -79 123 -367 580 -686 911 -954 991 -57 17
-196 21 -241 7z"/>
<path d="M24083 5472 l-41 -58 -19 -164 c-14 -129 -18 -240 -18 -505 1 -372
10 -473 65 -745 46 -225 77 -321 45 -140 -21 120 -42 339 -50 515 -11 259 16
753 59 1062 7 51 10 93 7 93 -3 0 -25 -26 -48 -58z"/>
<path d="M21085 5455 c76 -317 115 -646 115 -964 0 -185 -23 -517 -46 -660 -8
-52 -13 -96 -11 -98 6 -6 33 108 51 212 28 165 39 361 33 605 -6 256 -21 405
-68 695 -27 169 -33 193 -56 215 l-25 25 7 -30z"/>
</g>
</svg>
